<svg class="animated" id="freepik_stories-pirates" xmlns="http://www.w3.org/2000/svg" viewBox="0 0 500 500" version="1.1" xmlns:xlink="http://www.w3.org/1999/xlink" xmlns:svgjs="http://svgjs.com/svgjs"><style>svg#freepik_stories-pirates:not(.animated) .animable {opacity: 0;}svg#freepik_stories-pirates.animated #freepik--Trees--inject-10 {animation: 1.5s Infinite  linear wind;animation-delay: 0s;}svg#freepik_stories-pirates.animated #freepik--Clouds--inject-10 {animation: 1s 1 forwards linear zoomOut,6s Infinite  linear shake;animation-delay: 0s,1s;}svg#freepik_stories-pirates.animated #freepik--Sun--inject-10 {animation: 1.5s Infinite  linear heartbeat;animation-delay: 0s;}svg#freepik_stories-pirates.animated #freepik--Ship--inject-10 {animation: 1.5s Infinite  linear floating;animation-delay: 0s;}svg#freepik_stories-pirates.animated #freepik--Character--inject-10 {animation: 1s 1 forwards cubic-bezier(.36,-0.01,.5,1.38) lightSpeedLeft,3s Infinite  linear floating;animation-delay: 0s,1s;}            @keyframes wind {                0% {                    transform: rotate( 0deg );                }                25% {                    transform: rotate( 1deg );                }                75% {                    transform: rotate( -1deg );                }            }                    @keyframes zoomOut {                0% {                    opacity: 0;                    transform: scale(1.5);                }                100% {                    opacity: 1;                    transform: scale(1);                }            }                    @keyframes shake {                10%, 90% {                    transform: translate3d(-1px, 0, 0);                  }                  20%, 80% {                    transform: translate3d(2px, 0, 0);                  }                  30%, 50%, 70% {                    transform: translate3d(-4px, 0, 0);                  }                  40%, 60% {                    transform: translate3d(4px, 0, 0);                  }            }                    @keyframes heartbeat {                0% {                    transform: scale(1);                }                10% {                    transform: scale(1.1);                }                30% {                    transform: scale(1);                }                40% {                    transform: scale(1);                }                50% {                    transform: scale(1.1);                }                60% {                    transform: scale(1);                }                100% {                    transform: scale(1);                }            }                    @keyframes floating {                0% {                    opacity: 1;                    transform: translateY(0px);                }                50% {                    transform: translateY(-10px);                }                100% {                    opacity: 1;                    transform: translateY(0px);                }            }                    @keyframes lightSpeedLeft {              from {                transform: translate3d(-50%, 0, 0) skewX(20deg);                opacity: 0;              }              60% {                transform: skewX(-10deg);                opacity: 1;              }              80% {                transform: skewX(2deg);              }              to {                opacity: 1;                transform: translate3d(0, 0, 0);              }            }        </style><g id="freepik--Mountain--inject-10" class="animable" style="transform-origin: 244.29px 191.012px;"><g id="freepik--Rock--inject-10" class="animable" style="transform-origin: 244.29px 191.012px;"><path d="M387,220.91c-1.28-1.95-2.68-3.73-4.08-5.51-4.58-5.83-10.24-11.43-13.83-18.58-3.45-6.85-6.88-14.09-10-21.35-3.67-8.57-7.38-18.62-11.72-26.51-3.46-6.29-7-7.62-9.79-12.45s-6.36-15-10-15l-22.76.45c-3.95.07-9.82,9.5-9.82,9.5a41.26,41.26,0,0,0-6.68-.36c-3.95.07-9.28,6.53-15.65,6.66s-11.75-11-18.41-9.91-40.73,27.69-59.92,39.31c-15.57,9.42-31.77,23.71-47,34.34-7.52,5.27-15.53,18.76-23.37,22.95-10.06,5.37-19.13,15.42-28.27,23.6,6.43,1,14.62-12.4,21.07-12.19,7,.22,13.62,4.05,20.5,5.64,19.49,4.52,38.5-9.07,58.08-11.72,4.56-.62,9.33-.59,13.57,2.12s7.54,7.81,11.27,11.85a42.84,42.84,0,0,0,25,13.06c9.81,1.65,19.71.68,29.53-.29,23.26-2.31,46.44-5.22,69.65-8,6.16-.73,12.32-1.46,18.51-1.63,13.6-.37,30.78,5.3,43.84-1.36,0,0-6.41-5.07-8.14-6.53a27.55,27.55,0,0,1-6.28-8c-1.29-2.37-2.34-5-3.62-7.38C388.12,222.74,387.55,221.81,387,220.91Z" style="fill: rgb(69, 90, 100); transform-origin: 251.21px 189.605px;" id="elzwul2pwxhm" class="animable"></path><path d="M327.34,194.7l-7.48,13.77,8.88,4.54,6.2,36.68-16-12.25-8.3.16.36-31.67,4.69-7-5-6.81-4.47,7-3-42.23,8.18,5s6.32-6.93,9.75-7c1.94,0,5.92,1.78,10.63,4.62l0,0,.69,35.11Z" style="fill: rgb(55, 71, 79); transform-origin: 319.08px 202.29px;" id="el3c8he1qgi18" class="animable"></path><path d="M406.69,245.58s-6.41-5.07-8.14-6.53a27.55,27.55,0,0,1-6.28-8c-1.29-2.37-2.34-5-3.62-7.38-.53-1-1.1-1.91-1.7-2.81-1.28-1.95-2.68-3.73-4.08-5.51-4.58-5.83-10.24-11.43-13.83-18.58-2.08-4.14-4.15-8.43-6.16-12.77-1.26-2.7-2.5-5.49-3.69-8.27-.05-.1-.09-.2-.14-.31s0-.09-.05-.13c-1.18-2.76-2.32-5.51-3.38-8.14-3.88-8.42-5.49-17.76-12.16-24.15l-.82-.78,0,0,0,0-.95-.88-9.81,18.12.71,35.15-5.19.1-7.48,13.77,8.88,4.54s5,29.58,6.2,36.68l9.4-1.12c6.16-.73,12.32-1.46,18.51-1.63C376.45,246.57,393.63,252.24,406.69,245.58Z" style="fill: rgb(38, 50, 56); transform-origin: 363.305px 195.52px;" id="el3hohaq2pdxd" class="animable"></path><path d="M317.82,246.59c-16.15-1.5-32.28-3.7-48.4-6.05-4.45-.65-10-.27-14-2.94-1.66-1.11-4.43-6.16-6.2-6.16l-13.74,0,16.67-39.06,1.46-20,5.24-15.43,11.27-4.9-16.06,43.73,20.35,0,1.72,7.2,13.59-1.12,3.42,6.32,5.22-7.34L292,186.89l1.37-11.09-4.27-9.28-1,8.58-4.88,8.22-7.4.15s5-15.51,10.14-22,11.63-4.05,11.63-4.05l4.67-13.72s-6,2.68-7,.14-.24-12.36-.24-12.36a41.26,41.26,0,0,0-6.68-.36c-3.95.07-9.28,6.53-15.65,6.66s-11.75-11-18.41-9.91-40.73,27.69-59.92,39.31c-17.2,10.4-35.06,25.48-52,36.6-20,13.1-41,32.6-60.5,47.64,7.17,2.58,12.62,2.33,20,2.69,7,.35,39.94-6.11,46.82-4,21.95,6.64,21.95-5.66,44.17-8.48,5-.63,10.06-1,15,.59a6.12,6.12,0,0,1,4.45,4.07c.58,2,.18,4.26.49,6.35.82,5.4,5.52,6.85,9.26,7.1a343.5,343.5,0,0,0,58.17-1c9.84-1,19.92-.93,29.71-2.55,4.93-.82,9.84-1.8,14.71-3.08,2.33-.61,4.82-1,7.08-1.86,1.2-.44,6.89-2.13,8-2.07C333.62,248.82,323.79,247.14,317.82,246.59Z" style="fill: rgb(186, 104, 200); transform-origin: 210.79px 194.16px;" id="el3xl3ryxy5vl" class="animable"></path><g id="eliso9ma0yfd9"><path d="M317.82,246.59c-16.15-1.5-32.28-3.7-48.4-6.05-4.45-.65-10-.27-14-2.94-1.66-1.11-4.43-6.16-6.2-6.16l-13.74,0,16.67-39.06,1.46-20,5.24-15.43,11.27-4.9-16.06,43.73,20.35,0,1.72,7.2,13.59-1.12,3.42,6.32,5.22-7.34L292,186.89l1.37-11.09-4.27-9.28-1,8.58-4.88,8.22-7.4.15s5-15.51,10.14-22,11.63-4.05,11.63-4.05l4.67-13.72s-6,2.68-7,.14-.24-12.36-.24-12.36a41.26,41.26,0,0,0-6.68-.36c-3.95.07-9.28,6.53-15.65,6.66s-11.75-11-18.41-9.91-40.73,27.69-59.92,39.31c-17.2,10.4-35.06,25.48-52,36.6-20,13.1-41,32.6-60.5,47.64,7.17,2.58,12.62,2.33,20,2.69,7,.35,39.94-6.11,46.82-4,21.95,6.64,21.95-5.66,44.17-8.48,5-.63,10.06-1,15,.59a6.12,6.12,0,0,1,4.45,4.07c.58,2,.18,4.26.49,6.35.82,5.4,5.52,6.85,9.26,7.1a343.5,343.5,0,0,0,58.17-1c9.84-1,19.92-.93,29.71-2.55,4.93-.82,9.84-1.8,14.71-3.08,2.33-.61,4.82-1,7.08-1.86,1.2-.44,6.89-2.13,8-2.07C333.62,248.82,323.79,247.14,317.82,246.59Z" style="opacity: 0.1; transform-origin: 210.79px 194.16px;" class="animable"></path></g><path d="M189.93,174.64s-42.67,44.2-43.64,44-8.93,0-8.93,0L99.21,241.54s25.84-22,45.36-35.51Z" style="fill: rgb(186, 104, 200); transform-origin: 144.57px 208.09px;" id="elpn6vhhha7n" class="animable"></path><polygon points="191.02 212.27 205.8 207.99 208.74 199.16 210.82 184.74 191.02 212.27" style="fill: rgb(55, 71, 79); transform-origin: 200.92px 198.505px;" id="elkxma47cl9ak" class="animable"></polygon><polygon points="310.74 192.11 301.8 206.12 311.01 205.94 315.69 198.93 310.74 192.11" style="fill: rgb(186, 104, 200); transform-origin: 308.745px 199.115px;" id="el1eoe3wl0zny" class="animable"></polygon><polygon points="256.52 238.66 255.9 207.01 249.25 231.44 256.52 238.66" style="fill: rgb(55, 71, 79); transform-origin: 252.885px 222.835px;" id="elk8ams75aepm" class="animable"></polygon><polyline points="269.13 238.41 268.57 209.46 265.78 238.47" style="fill: rgb(55, 71, 79); transform-origin: 267.455px 223.965px;" id="elxvkn6d0ic5h" class="animable"></polyline><polygon points="274.44 195.75 270.81 195.82 276.93 219.42 276.16 202.95 274.44 195.75" style="fill: rgb(55, 71, 79); transform-origin: 273.87px 207.585px;" id="elqi29bzu92mh" class="animable"></polygon><path d="M374.73,203.25c-10.42-9.57-23.17-47.95-26.63-54.24s-7.73-7.67-10.56-12.5-6.36-15-10-15l-22.76.45c-2.49,0-5.73,3.79-7.8,6.57h0c9.12-2.37,16-.38,13.21,3.93s-5.54,7.56-2.75,8.14-4.17,16.26-4.17,16.26l8.16,5s6.33-6.94,9.76-7,13.32,5.69,22.18,12.76,13.4,9.95,16.45,17.12,10.63,20.07,17.43,26.9a104.88,104.88,0,0,1,13.79,17S384.55,212.26,374.73,203.25Z" style="fill: rgb(186, 104, 200); transform-origin: 344.01px 175.075px;" id="elx4k9xmgq169" class="animable"></path><g id="el4smsmv06577"><path d="M374.73,203.25c-10.42-9.57-23.17-47.95-26.63-54.24s-7.73-7.67-10.56-12.5-6.36-15-10-15l-22.76.45c-2.49,0-5.73,3.79-7.8,6.57h0c9.12-2.37,16-.38,13.21,3.93s-5.54,7.56-2.75,8.14-4.17,16.26-4.17,16.26l8.16,5s6.33-6.94,9.76-7,13.32,5.69,22.18,12.76,13.4,9.95,16.45,17.12,10.63,20.07,17.43,26.9a104.88,104.88,0,0,1,13.79,17S384.55,212.26,374.73,203.25Z" style="opacity: 0.1; transform-origin: 344.01px 175.075px;" class="animable"></path></g><g id="elmlihf1ljpq"><path d="M226.93,236.36l2.55-7.57,14.64-26.32L228.47,218l-7.54.15-20.66,8.7h0c21.16-1.88,24.65,3.37,24.65,3.37s-11.33,8-1.85,11.62c5,1.91,27.19,1.94,51.15,1.25L242,238.94Zm-65.41-26,19.25-6.59,8.13-14.45-11.44,10.44Zm26.22,6.69S159,228.31,154.81,229s-22.62,4.59-22.62,4.59L97.56,248c5.56.37,29.81-2.47,38.21-3.9,18.82-3.2,30.24-12.85,53-15.86l.88-.57C184.93,226.78,187.74,217.06,187.74,217.06Zm55.92-38.44,15.22-21.73,11.27-4.9,18.13-20.87c-3.95.07-9.28,6.53-15.65,6.66s-11.75-11-18.41-9.91l4.89,5.69-9.82,13.37-5.88,19.28-19.2,27.59Zm-19.85-4.88-13,11-2.08,14.42,4.32-10.3Zm69.52,2.06-4.27-9.28-1,8.58-4.88,8.22,4.62,7.13,1.95,11.38,3.42,6.32,5.22-7.34L292,186.89Zm81.4,27.45c-10.42-9.57-23.17-47.95-26.63-54.24s-7.73-7.67-10.56-12.5-6.36-15-10-15l-13.35.26-3.58,1.9,12.88,7.23,7.1,16.57-3.15-21.11,3.76-.07,4.6,15.13,9.73,18.44-13.67-.39a115.61,115.61,0,0,1,11.51,8.1c8.85,7.06,13.4,9.95,16.45,17.12s10.63,20.07,17.43,26.9a104.88,104.88,0,0,1,13.79,17S384.55,212.26,374.73,203.25ZM295.2,143.84c-1-2.53-.24-12.36-.24-12.36l-4.48,3.44L284.72,152l-1.21,13.07a30.23,30.23,0,0,1,2.41-3.64c5.16-6.48,11.63-4.05,11.63-4.05l4.67-13.72S296.19,146.38,295.2,143.84Zm6.6,62.27,9.21-.18,4.69-7-5-6.81Z" style="opacity: 0.15; transform-origin: 244.3px 184.766px;" class="animable"></path></g><polygon points="348.97 195.61 353.19 200.34 356.49 210.22 355.11 222.89 348.97 195.61" style="fill: rgb(55, 71, 79); transform-origin: 352.73px 209.25px;" id="el2tmgv4jxpnr" class="animable"></polygon></g></g><g id="freepik--Trees--inject-10" class="animable animator-active" style="transform-origin: 47.865px 206.643px;"><g id="freepik--Palm--inject-10" class="animable" style="transform-origin: 50.355px 206.643px;"><path d="M53.05,155.14c27,20.79,35.76,80,26.53,115.92-.66,2.57-11.59,2.46-10.49,0,11.23-39,2.79-96.5-19-115.47Z" style="fill: rgb(69, 90, 100); transform-origin: 66.6087px 214.043px;" id="elamx6br65ag6" class="animable"></path><path d="M51.32,154.4c-1.34-1.33-.67-1.21-2.58-2.74-2.89-2.33-8.15-3.23-12.74-2.61-8.1,1.11-15.89,4.91-19.71,12.38,3.38-2.61,7.43-3,11.54-2.62,1.18-1.61,2.37-3.2,3.62-4.75-.12,1.66-.26,3.32-.46,5a15.52,15.52,0,0,0,5.63-.53c1.29-2,2.69-3.91,4.15-5.77-.58,1.72-1.15,3.45-1.67,5.2A46.05,46.05,0,0,0,51.32,154.4Z" style="fill: rgb(186, 104, 200); transform-origin: 33.805px 155.145px;" id="elghaqo9ugus" class="animable"></path><g id="eliu00ectnjin"><g style="opacity: 0.15; transform-origin: 33.805px 155.145px;" class="animable"><path d="M51.32,154.4c-1.34-1.33-.67-1.21-2.58-2.74-2.89-2.33-8.15-3.23-12.74-2.61-8.1,1.11-15.89,4.91-19.71,12.38,3.38-2.61,7.43-3,11.54-2.62,1.18-1.61,2.37-3.2,3.62-4.75-.12,1.66-.26,3.32-.46,5a15.52,15.52,0,0,0,5.63-.53c1.29-2,2.69-3.91,4.15-5.77-.58,1.72-1.15,3.45-1.67,5.2A46.05,46.05,0,0,0,51.32,154.4Z" id="eletkvgvozqa6" class="animable" style="transform-origin: 33.805px 155.145px;"></path></g></g><path d="M50.11,155s-.64-2.53,3-6.54a26.27,26.27,0,0,1,18.09-8.12c4.19,0,10.26,1.28,13.22,4.1a19.89,19.89,0,0,0-10,1.68,22.92,22.92,0,0,0-8-2.47s4.28,2.48,5.2,3.7a14.1,14.1,0,0,1-7.11,3.2s-3.2-3.53-6.73-3.45a8.77,8.77,0,0,1,4.64,4.24A63.46,63.46,0,0,1,50.11,155Z" style="fill: rgb(186, 104, 200); transform-origin: 67.2433px 147.67px;" id="elgd022vdm5q6" class="animable"></path><g id="elrq6c8blg8fm"><path d="M50.11,155s-.64-2.53,3-6.54a26.27,26.27,0,0,1,18.09-8.12c4.19,0,10.26,1.28,13.22,4.1a19.89,19.89,0,0,0-10,1.68,22.92,22.92,0,0,0-8-2.47s4.28,2.48,5.2,3.7a14.1,14.1,0,0,1-7.11,3.2s-3.2-3.53-6.73-3.45a8.77,8.77,0,0,1,4.64,4.24A63.46,63.46,0,0,1,50.11,155Z" style="opacity: 0.2; transform-origin: 67.2433px 147.67px;" class="animable"></path></g><path d="M50.11,155a24.11,24.11,0,0,1,14.53-2.64c11,1.43,17.2,6.75,19.49,11.45a14.71,14.71,0,0,0-11.93-2.05l-4-4.59.41,5.05a14.27,14.27,0,0,1-6-.62l-3.89-6.1L60,160.82S53.5,159.21,50.11,155Z" style="fill: rgb(186, 104, 200); transform-origin: 67.12px 157.981px;" id="el6eqn029jvfa" class="animable"></path><g id="elpzbe1ho72u"><path d="M50.11,155a24.11,24.11,0,0,1,14.53-2.64c11,1.43,17.2,6.75,19.49,11.45a14.71,14.71,0,0,0-11.93-2.05l-4-4.59.41,5.05a14.27,14.27,0,0,1-6-.62l-3.89-6.1L60,160.82S53.5,159.21,50.11,155Z" style="opacity: 0.05; transform-origin: 67.12px 157.981px;" class="animable"></path></g><path d="M50.11,155s-2-.64-5.89,1c-6.69,2.78-12,10.33-13.39,14.22s-2.12,10-.45,13.63a19.51,19.51,0,0,1,4.8-8.82,22.44,22.44,0,0,1,.28-8.21s.92,4.79,1.76,6a13.8,13.8,0,0,0,5.27-5.58s-2.25-4.12-1-7.39a8.69,8.69,0,0,0,2.45,5.7S47,160.58,50.11,155Z" style="fill: rgb(186, 104, 200); transform-origin: 39.7631px 169.364px;" id="elv0dfhpgwbjq" class="animable"></path><g id="el225c9nnumsg"><path d="M50.11,155s-2-.64-5.89,1c-6.69,2.78-12,10.33-13.39,14.22s-2.12,10-.45,13.63a19.51,19.51,0,0,1,4.8-8.82,22.44,22.44,0,0,1,.28-8.21s.92,4.79,1.76,6a13.8,13.8,0,0,0,5.27-5.58s-2.25-4.12-1-7.39a8.69,8.69,0,0,0,2.45,5.7S47,160.58,50.11,155Z" style="opacity: 0.05; transform-origin: 39.7631px 169.364px;" class="animable"></path></g><path d="M58.26,185.66a16.74,16.74,0,0,1-2.4-7c-.06-1-.07-2.11,0-3.24-3.68-2.52-4-5.13-4-5.13a6.63,6.63,0,0,0,4.09,2.82,28.45,28.45,0,0,0-.15-7,8.22,8.22,0,0,1-3.94-3,8,8,0,0,0,3.85,1.18c-.88-4.54-3.54-8.24-5.55-9.28,0,0-2.47,1.66-2.94,10.21C46.69,174,51.29,182.59,58.26,185.66Z" style="fill: rgb(186, 104, 200); transform-origin: 52.7193px 170.335px;" id="el0xbn9xtwybuo" class="animable"></path></g><g id="freepik--palm--inject-10" class="animable" style="transform-origin: 40.9752px 232.613px;"><path d="M35,203.66c21.77,9.43,35.73,41.59,35.64,67.44,0,1.85-7.38,1.85-7.05,0,.92-28.27-12.55-57.54-30.49-66.64Z" style="fill: rgb(69, 90, 100); transform-origin: 51.8702px 238.074px;" id="elk7gdnb3pqib" class="animable"></path><path d="M33.92,205a11.81,11.81,0,0,1,.27-2.61c.63-2.51,3.17-5.22,6-6.81,5-2.79,10.88-4,16.15-1.42-3,0-5.4,1.45-7.51,3.4-1.34-.39-2.67-.78-4-1.11.77.87,1.55,1.73,2.35,2.57a10.84,10.84,0,0,1-3.35,2.08c-1.55-.57-3.13-1-4.73-1.46,1,.71,2.1,1.43,3.12,2.18A32,32,0,0,1,33.92,205Z" style="fill: rgb(186, 104, 200); transform-origin: 45.1298px 198.87px;" id="elra3desu3c4o" class="animable"></path><g id="elylbev10fll8"><g style="opacity: 0.15; transform-origin: 45.1298px 198.87px;" class="animable"><path d="M33.92,205a11.81,11.81,0,0,1,.27-2.61c.63-2.51,3.17-5.22,6-6.81,5-2.79,10.88-4,16.15-1.42-3,0-5.4,1.45-7.51,3.4-1.34-.39-2.67-.78-4-1.11.77.87,1.55,1.73,2.35,2.57a10.84,10.84,0,0,1-3.35,2.08c-1.55-.57-3.13-1-4.73-1.46,1,.71,2.1,1.43,3.12,2.18A32,32,0,0,1,33.92,205Z" id="el6z6zs5pz7lh" class="animable" style="transform-origin: 45.1298px 198.87px;"></path></g></g><path d="M34.83,204.85s-.71-1.67-4.45-2.35a18.29,18.29,0,0,0-13.46,3.1c-2.33,1.76-5.16,5-5.61,7.84a13.84,13.84,0,0,1,6.28-3.3A16,16,0,0,1,21,205.42a19.62,19.62,0,0,0-1.33,4.24,9.76,9.76,0,0,0,5.29-1.21s.29-3.3,2.29-4.75a6.11,6.11,0,0,0-.79,4.31A44.63,44.63,0,0,0,34.83,204.85Z" style="fill: rgb(186, 104, 200); transform-origin: 23.07px 207.852px;" id="elnek72l9dwse" class="animable"></path><g id="el90mtw8p7ujh"><path d="M34.83,204.85s-.71-1.67-4.45-2.35a18.29,18.29,0,0,0-13.46,3.1c-2.33,1.76-5.16,5-5.61,7.84a13.84,13.84,0,0,1,6.28-3.3A16,16,0,0,1,21,205.42a19.62,19.62,0,0,0-1.33,4.24,9.76,9.76,0,0,0,5.29-1.21s.29-3.3,2.29-4.75a6.11,6.11,0,0,0-.79,4.31A44.63,44.63,0,0,0,34.83,204.85Z" style="opacity: 0.2; transform-origin: 23.07px 207.852px;" class="animable"></path></g><path d="M34.83,204.85a16.78,16.78,0,0,0-9.18,4.64c-5.49,5.41-6.71,11-6,14.56a10.2,10.2,0,0,1,5.76-6.15l.26-4.22,1.9,3a10.08,10.08,0,0,0,3.05-2.85l-.41-5,1.57,3.49S34.73,208.63,34.83,204.85Z" style="fill: rgb(186, 104, 200); transform-origin: 27.1483px 214.45px;" id="eltb29uw2yws" class="animable"></path><g id="el07r2n88ld2bn"><path d="M34.83,204.85a16.78,16.78,0,0,0-9.18,4.64c-5.49,5.41-6.71,11-6,14.56a10.2,10.2,0,0,1,5.76-6.15l.26-4.22,1.9,3a10.08,10.08,0,0,0,3.05-2.85l-.41-5,1.57,3.49S34.73,208.63,34.83,204.85Z" style="opacity: 0.05; transform-origin: 27.1483px 214.45px;" class="animable"></path></g><path d="M34.83,204.85s.81-1.18,3.69-1.93c4.88-1.27,11,.68,13.42,2.27s5.37,4.64,6,7.38a13.58,13.58,0,0,0-6.38-2.88,15.81,15.81,0,0,0-3.6-4.45,19.22,19.22,0,0,1,1.55,4.1,9.67,9.67,0,0,1-5.27-.89s-.48-3.23-2.53-4.54a6,6,0,0,1,1,4.2S38.91,206.65,34.83,204.85Z" style="fill: rgb(186, 104, 200); transform-origin: 46.385px 207.541px;" id="eljg3t8i7r93" class="animable"></path><g id="ell32zlhgfhmh"><path d="M34.83,204.85s.81-1.18,3.69-1.93c4.88-1.27,11,.68,13.42,2.27s5.37,4.64,6,7.38a13.58,13.58,0,0,0-6.38-2.88,15.81,15.81,0,0,0-3.6-4.45,19.22,19.22,0,0,1,1.55,4.1,9.67,9.67,0,0,1-5.27-.89s-.48-3.23-2.53-4.54a6,6,0,0,1,1,4.2S38.91,206.65,34.83,204.85Z" style="opacity: 0.05; transform-origin: 46.385px 207.541px;" class="animable"></path></g><path d="M43.22,225.32a11.69,11.69,0,0,0-1.64-4.92c-.4-.6-.85-1.21-1.33-1.83,1-2.94.06-4.53.06-4.53a4.57,4.57,0,0,1-1.09,3.29,20.12,20.12,0,0,1-2.86-4,5.71,5.71,0,0,0,.93-3.32,5.59,5.59,0,0,1-1.64,2.28c-1.42-2.9-1.5-6.07-.82-7.49,0,0,2.07-.12,5.92,4.43S45.79,220.68,43.22,225.32Z" style="fill: rgb(186, 104, 200); transform-origin: 39.5003px 215.06px;" id="elmldihe5v53s" class="animable"></path></g></g><g id="freepik--Floor--inject-10" class="animable" style="transform-origin: 249.43px 345.266px;"><g id="freepik--Beach--inject-10" class="animable" style="transform-origin: 249.43px 345.266px;"><ellipse id="freepik--floor--inject-10" cx="249.43" cy="345.27" rx="233.54" ry="134.83" style="fill: rgb(255, 189, 167); transform-origin: 249.43px 345.27px;" class="animable"></ellipse><g id="freepik--floor--inject-10"><ellipse cx="249.43" cy="345.27" rx="233.54" ry="134.83" style="fill: rgb(255, 255, 255); opacity: 0.1; transform-origin: 249.43px 345.27px;" class="animable"></ellipse></g><g id="elwjhgk21il1"><path d="M414.57,249.93c56.26,32.48,77.8,77.41,64.65,119.43A25.68,25.68,0,0,1,468.73,365c-4.53-3.12-8.28-7.21-12.2-11.06a106.68,106.68,0,0,0-21-16.46c-13.24-7.69-32-8.26-47-9.55-14.29-1.23-28.75-2.38-42.35-6.94s-26.47-13-33.4-25.51c-4.5-8.15-7.29-17.16-11.72-25.34s-10.54-12.94-18.85-15c-4.17-1-12.72-1.53-18.85-1.36-14.47.38-29,3.59-43.39,4.67-23.74,1.77-33.56-2.54-38.4-3.69A79.58,79.58,0,0,1,150.19,240c-4.59-3.63-8.94-7.59-13.95-10.62-.77-.47-1.57-.91-2.37-1.34C223,198.73,338.5,206,414.57,249.93Z" style="fill: rgb(255, 255, 255); opacity: 0.4; transform-origin: 308.414px 289.896px;" class="animable"></path></g><g id="els4v0ua6t68q"><path d="M414.57,249.93c56.26,32.48,77.8,77.41,64.65,119.43A25.68,25.68,0,0,1,468.73,365c-4.53-3.12-8.28-7.21-12.2-11.06a106.68,106.68,0,0,0-21-16.46c-13.24-7.69-32-8.26-47-9.55-14.29-1.23-28.75-2.38-42.35-6.94s-26.47-13-33.4-25.51c-4.5-8.15-7.29-17.16-11.72-25.34s-10.54-12.94-18.85-15c-4.17-1-12.72-1.53-18.85-1.36-14.47.38-29,3.59-43.39,4.67-23.74,1.77-33.56-2.54-38.4-3.69A79.58,79.58,0,0,1,150.19,240c-4.59-3.63-8.94-7.59-13.95-10.62-.77-.47-1.57-.91-2.37-1.34C223,198.73,338.5,206,414.57,249.93Z" style="fill: rgb(186, 104, 200); opacity: 0.3; transform-origin: 308.414px 289.896px;" class="animable"></path></g><g id="eldbndt0wocad"><path d="M414.57,249.93c44.08,25.45,66.85,58.54,68.32,91.89-8.53-9-16.22-14.18-32.89-19.88-9.08-3.1-15.14-5.54-36.15-6.54-11.83-.56-23.93-1.11-35.83-.9-14.89.26-34.57-4.93-44-17.46l-.08-.1c-7.13-8.05-12.58-19.14-19.12-34.14A32.34,32.34,0,0,0,302.92,248a42.13,42.13,0,0,0-19.11-7.27c-5.39-.62-10.83-.19-16.24.25l-35.66,2.86c-15.21,1.22-32,.4-46.11-5.89-9.32-4.16-17.33-10.54-24.85-17.51C245.41,200.52,346,210.34,414.57,249.93Z" style="fill: rgb(186, 104, 200); opacity: 0.5; transform-origin: 321.92px 276.127px;" class="animable"></path></g><g id="elhs18c62s24p"><path d="M414.57,249.93c44.08,25.45,66.85,58.54,68.32,91.89-8.53-9-16.22-14.18-32.89-19.88-9.08-3.1-15.14-5.54-36.15-6.54-11.83-.56-23.93-1.11-35.83-.9-14.89.26-34.57-4.93-44-17.46l-.08-.1c-7.13-8.05-12.58-19.14-19.12-34.14A32.34,32.34,0,0,0,302.92,248a42.13,42.13,0,0,0-19.11-7.27c-5.39-.62-10.83-.19-16.24.25l-35.66,2.86c-15.21,1.22-32,.4-46.11-5.89-9.32-4.16-17.33-10.54-24.85-17.51C245.41,200.52,346,210.34,414.57,249.93Z" style="fill: rgb(255, 255, 255); opacity: 0.4; transform-origin: 321.92px 276.127px;" class="animable"></path></g><path d="M414.57,249.93c27.06,15.62,46.09,34.12,57.09,53.79q-3.36-.93-6.8-1.62c-3.27-.66-6.58-1.15-9.87-1.52-14.7-1.63-29.55-.92-44.31-1.78a209.14,209.14,0,0,1-35.21-5.09c-11-2.57-19.45-9.12-27.35-16.86-7.16-7-10.15-17.54-14.06-26.48-5.22-12-13.35-22.47-22.95-25.13-11.93-3.33-24.51-1.69-36.56.09-10.82,1.6-21.89,3.68-32.63,4.45-21.65,1.56-40.55-2.72-56.7-14.16C264.09,202.64,352.47,214.07,414.57,249.93Z" style="fill: rgb(186, 104, 200); transform-origin: 328.44px 257.082px;" id="eloiqdfcxv74" class="animable"></path><g id="el6nlyuel0s8"><path d="M414.57,249.93c27.06,15.62,46.09,34.12,57.09,53.79q-3.36-.93-6.8-1.62c-3.27-.66-6.58-1.15-9.87-1.52-14.7-1.63-29.55-.92-44.31-1.78a209.14,209.14,0,0,1-35.21-5.09c-11-2.57-19.45-9.12-27.35-16.86-7.16-7-10.15-17.54-14.06-26.48-5.22-12-13.35-22.47-22.95-25.13-11.93-3.33-24.51-1.69-36.56.09-10.82,1.6-21.89,3.68-32.63,4.45-21.65,1.56-40.55-2.72-56.7-14.16C264.09,202.64,352.47,214.07,414.57,249.93Z" style="fill: rgb(255, 255, 255); opacity: 0.2; transform-origin: 328.44px 257.082px;" class="animable"></path></g><path d="M321.57,306.71c-14.6-11.33-15.8-34.15-29-45.38-11.17-9.5-28.45-7.38-74.33-2.78,0,0,33.46-5,51.67-5.74,14-.61,21.31,1.36,29.91,11.61C309,275.41,308.9,292.76,321.57,306.71Z" style="fill: rgb(250, 250, 250); transform-origin: 269.905px 279.71px;" id="eluaaulb5rs4" class="animable"></path><path d="M132.19,228.63c1.72-.58,3.44-1.14,5.18-1.69a78.86,78.86,0,0,1,9.85,8.39c10.62,10.07,24.81,17.09,32.78,19-10.53-1.68-22.68-6-36.9-18.35A53.21,53.21,0,0,0,132.19,228.63Z" style="fill: rgb(250, 250, 250); transform-origin: 156.095px 240.635px;" id="elzz50y59lag" class="animable"></path><path d="M358.64,285.85s11.53,10,32.78,13.61c20.87,3.53,59.58-1.27,75.78,3.14,0,0-11.39-5.56-41-5.56C390.22,297,382.14,298.87,358.64,285.85Z" style="fill: rgb(250, 250, 250); transform-origin: 412.92px 294.225px;" id="elaqhtmnyvxvh" class="animable"></path><path d="M470.43,366.06c-7.76-3-14.95-13.08-25.11-20.8-9.3-7.07-23.05-14.85-55-17.2,0,0,21.64-.47,37.1,4.73s20.84,10.67,26.09,16.62C462.61,359.78,467.71,364.63,470.43,366.06Z" style="fill: rgb(250, 250, 250); transform-origin: 430.375px 347.054px;" id="el16pze7879fn" class="animable"></path><path d="M237.65,243.39c-3.44.28-17.94,2.83-30.8,1S183.65,239.2,173,230.5c0,0,12.57,7.77,26.36,10.66A131.63,131.63,0,0,0,237.65,243.39Z" style="fill: rgb(250, 250, 250); transform-origin: 205.325px 237.773px;" id="el6yjwqcvaicf" class="animable"></path><path d="M355.07,310.94c-4.94-1.9-13.85-5.22-21.73-15.84s-11-18.13-15.95-29.44-11.6-15.46-11.6-15.46,7.14,8.77,10.74,18.71,8.22,20,15.94,28.45S346.2,308.63,355.07,310.94Z" style="fill: rgb(250, 250, 250); transform-origin: 330.43px 280.57px;" id="elu1aqjrslbn" class="animable"></path><path d="M480.38,342.34c-5.32-6.25-25.35-21.78-58.22-26.41,0,0,10.47-.59,29,4.73s27.42,13.84,31.5,17.92q.29,3.33.29,6.66C482.17,344.39,481.31,343.43,480.38,342.34Z" style="fill: rgb(250, 250, 250); transform-origin: 452.555px 330.575px;" id="eljpt0l273goh" class="animable"></path><path d="M207.41,226.47c8.07,5,20.53,5.9,38.46,4.3s51.22-9.58,66.81-5c0,0-5.67-4.25-26.22-2.88-18.67,1.24-43.42,6.16-56,6.18C213,229.08,207.41,226.47,207.41,226.47Z" style="fill: rgb(250, 250, 250); transform-origin: 260.045px 227.055px;" id="ele76407r0jrt" class="animable"></path></g></g><g id="freepik--Clouds--inject-10" class="animable" style="transform-origin: 349.896px 96.9847px;"><path id="freepik--Cloud--inject-10" d="M450.79,108.78a9.13,9.13,0,0,0-3-.56c-1-.08-1.3-.27-1.48-.49a7.24,7.24,0,0,0-8.7-2.56,5.56,5.56,0,0,0-6.56-3.71c.11-3.06-3.79-6.34-7.3-7.09s-6.3-.42-8.22,1.8c-2.05-4-10.1-5.15-14.46-3-2.51,1.22-4.63,2.47-5.67,4.77a9.46,9.46,0,0,0-.94,4.56c-1.7-1.5-5.1-1.9-7.37-1-2.45.94-2.63,2.79-2.75,4.66a8.67,8.67,0,0,0-4.46-.08c-1.54.46-2.42,1.67-2.21,2.64-1.22-.06-4.13.92-3.79,2.21s3.69,1.3,4.93,1.25a23.86,23.86,0,0,0,3.47-.54,5.54,5.54,0,0,0,1.8.34c2.11,0,3-.92,3.34-1.71,1,2.17,4.7,3.83,7.3,4.49,4.88,1.25,11.79.49,14.79-3.16a5.45,5.45,0,0,0,1.46,1.77,8.44,8.44,0,0,0,4.51,1.83c2,.19,7.39.45,8.91-2.74,1.07,2.12,5.86,3.08,9.5,2.57a15.22,15.22,0,0,0,4.08-1.23,25.18,25.18,0,0,0,2.35-1.41,2,2,0,0,1,2-.14,11.86,11.86,0,0,0,7.95,0C452.28,111.35,452.7,109.65,450.79,108.78Z" style="fill: rgb(245, 245, 245); transform-origin: 412.937px 103.711px;" class="animable"></path><path id="freepik--cloud--inject-10" d="M322.2,94.79a9,9,0,0,0-2.93-.54c-.95-.07-1.25-.26-1.43-.47a7,7,0,0,0-8.41-2.48,5.36,5.36,0,0,0-6.34-3.58c.1-3-3.67-6.14-7.06-6.86s-6.09-.4-7.94,1.74c-2-3.88-9.77-5-14-2.92-2.43,1.18-4.48,2.39-5.49,4.61a9.27,9.27,0,0,0-.91,4.41c-1.64-1.44-4.93-1.83-7.12-1-2.36.92-2.54,2.7-2.66,4.51a8.24,8.24,0,0,0-4.3-.07c-1.49.44-2.35,1.61-2.15,2.55-1.18-.06-4,.89-3.66,2.13.36,1.4,3.57,1.26,4.76,1.21a22,22,0,0,0,3.36-.52,5.23,5.23,0,0,0,1.74.33c2,0,2.91-.89,3.23-1.65,1,2.1,4.55,3.7,7,4.34,4.72,1.21,11.4.47,14.31-3.06a5.06,5.06,0,0,0,1.4,1.71A8.18,8.18,0,0,0,288,101c1.94.18,7.14.43,8.61-2.65,1,2,5.67,3,9.19,2.48a14.07,14.07,0,0,0,3.94-1.19,23.49,23.49,0,0,0,2.27-1.36,1.9,1.9,0,0,1,1.93-.13,11.47,11.47,0,0,0,7.69,0C323.64,97.28,324.05,95.63,322.2,94.79Z" style="fill: rgb(245, 245, 245); transform-origin: 285.579px 89.8727px;" class="animable"></path></g><g id="freepik--Sun--inject-10" class="animable" style="transform-origin: 355.02px 64.07px;"><g id="freepik--sun--inject-10"><circle cx="355.02" cy="64.07" r="17.26" style="fill: rgb(255, 189, 167); transform-origin: 355.02px 64.07px; transform: rotate(-22.5deg);" class="animable"></circle></g></g><g id="freepik--Shadows--inject-10" class="animable" style="transform-origin: 247.474px 344.118px;"><g id="freepik--Shadow--inject-10"><path d="M445.51,289.63a.58.58,0,0,0,.3-.75.86.86,0,0,0-.26-.24c-6.84-4.78-13.31-9.83-19.82-15.07-2.48-2-5-4-7.56-5.85a113.84,113.84,0,0,0-26.8-13.66c-4.81-1.79-9.69-3.38-14.59-4.89-4.57-1.41-9.11-3.33-13.74-4.42-4-.94-8.07-1.89-12.11-1.26-3.12.49-6.31,2.88-6.59,6.42-.3,4,2.87,7,5.52,9.5,4.12,3.85,12.4,7.66,17.43,10,9.74,4.6,13.26,5.77,23.89,10.43A54.66,54.66,0,0,0,409.86,284c6.48.4,12.92.21,19.35,1.52,5.09,1,10.19,2.69,15.22,4.06a1.69,1.69,0,0,0,1,.07Z" style="opacity: 0.1; transform-origin: 395.087px 266.491px;" class="animable"></path></g><g id="freepik--shadow--inject-10"><ellipse cx="188.82" cy="397.03" rx="83" ry="47.92" style="opacity: 0.1; transform-origin: 188.82px 397.03px;" class="animable"></ellipse></g><g id="freepik--shadow--inject-10"><path d="M403.73,392.37c1.41,0,3.45-1.86,4.33-2.84,2.09-2.32,4.21-4.86,4.89-5.68,1.15.21,5,.95,9.13,2l1,.27a14.6,14.6,0,0,0,3.23.68,1.34,1.34,0,0,0,1.28-.61c.33-.59.1-1.43-.75-2.81-1.77-2.88-5.55-5.06-7.41-6a47.65,47.65,0,0,1,5.6-2.53c.86-.31,2-.83,2-1.77,0-.46-.32-1.11-1.77-1.57a17.87,17.87,0,0,0-4.42-.49,16.64,16.64,0,0,0-1.76.08,29,29,0,0,0-7.66,1.48,19.13,19.13,0,0,0-8.89-3.57c-.71-.06-1.35-.1-1.92-.1-1.45,0-2.24.23-2.58.72a1,1,0,0,0-.08,1,5.61,5.61,0,0,0,1.93,2,18.54,18.54,0,0,1,3.21,2.95l-.88.32a49.61,49.61,0,0,0-7.76,3.4c-2.05,1.17-2.89,2.14-2.64,3.07.3,1.13,2.09,1.37,3.54,1.37h.28l1.54,0c2.26,0,5.23.06,6.6.09-.27,1.07-.77,3.25-1.29,6.19a2.4,2.4,0,0,0,.28,2A1.25,1.25,0,0,0,403.73,392.37Z" style="opacity: 0.1; transform-origin: 409.751px 380.642px;" class="animable"></path></g><g id="freepik--shadow--inject-10"><path d="M57.1,320.77a.84.84,0,0,0,.62-.28c.4-.44.53-1.69.39-3.74A59.17,59.17,0,0,0,68.33,318a9.32,9.32,0,0,0,4.21-.7,4.6,4.6,0,0,0,2.53-3,6.67,6.67,0,0,0-1.27-5c.48-.83,1.07-2.76-1-5.7a6.36,6.36,0,0,0-5.42-2.87,8.29,8.29,0,0,0-1.16.09c-.58-.75-2.11-2.18-5.3-2.18a12.46,12.46,0,0,0-1.47.09,4.43,4.43,0,0,0-3,1.93c-2,2.71-2.72,7.94-2.29,11.88a13.56,13.56,0,0,0-2.36-.25,3.7,3.7,0,0,0-2.27.57,1,1,0,0,0-.42,1c.21,1.07,2.6,2,4.7,2.63.57,1.11,2,3.66,2.81,4.19A.84.84,0,0,0,57.1,320.77Z" style="opacity: 0.1; transform-origin: 62.1189px 309.708px;" class="animable"></path></g></g><g id="freepik--Starfish--inject-10" class="animable" style="transform-origin: 409.712px 378.888px;"><g id="freepik--starfish--inject-10" class="animable" style="transform-origin: 409.712px 378.888px;"><path d="M418.1,375.68a52.42,52.42,0,0,1,6.71-3.11c2.43-.87,1.76-1.74.25-2.22a18.48,18.48,0,0,0-5.95-.39c-5.69.52-7.8,1.57-7.8,1.57a18.65,18.65,0,0,0-8.86-3.65c-1.89-.18-4.36-.22-4,.76.49,1.23,3.23,2.26,5.53,5.38-1.05.52-5.31,1.72-9.29,4-4.16,2.37-2.22,3.39.88,3.32,2.84-.05,8.91.1,8.91.1s-.72,2.61-1.46,6.87c-.59,3.35,2.8,1,4.57-.95,2.54-2.81,5.09-5.92,5.09-5.92s4.59.79,9.52,2.12c3.54.95,6.32,2,4.09-1.58S418.1,375.68,418.1,375.68Z" style="fill: rgb(242, 143, 143); transform-origin: 409.699px 378.888px;" id="elngxvqh9nfx" class="animable"></path><path d="M407.45,385.78c1.32-1.51,4.65-6.33,4.65-6.33s9.44,2.63,11.81,3.33,3,.42,2.78-.16c1.49,2.82-1.16,1.82-4.46.93-4.93-1.33-9.52-2.12-9.52-2.12s-2.55,3.11-5.09,5.92c-1.32,1.47-3.52,3.13-4.33,2.51C404.69,389.77,406.13,387.29,407.45,385.78Z" style="fill: rgb(177, 102, 104); transform-origin: 415.203px 384.722px;" id="eld4jpgkpv4c" class="animable"></path><path d="M392.39,380.47c.79.51,1.92.31,4.86,0s7.72-1,7.72-1l-.46,2s-6.07-.15-8.91-.1C394,381.37,392.64,381.09,392.39,380.47Z" style="fill: rgb(177, 102, 104); transform-origin: 398.68px 380.47px;" id="eluekt7bwmfcm" class="animable"></path><path d="M425.68,370.59c1,.46,1.19,1.24-.87,2a52.42,52.42,0,0,0-6.71,3.11l-1.94-1s2.74-1.18,5.48-2C424.15,371.87,426.51,371.31,425.68,370.59Z" style="fill: rgb(177, 102, 104); transform-origin: 421.283px 373.145px;" id="elmchwz89fef" class="animable"></path><path d="M404,374c-2.3-3.12-5-4.15-5.53-5.38a.4.4,0,0,1,.17-.54h0s-.4.51,1.81,1.45a17.3,17.3,0,0,1,4.51,3.38C405.51,373.61,404,374,404,374Z" style="fill: rgb(177, 102, 104); transform-origin: 401.753px 371.04px;" id="el1gnhtnnefwj" class="animable"></path></g></g><g id="freepik--Shell--inject-10" class="animable" style="transform-origin: 61.4745px 308.33px;"><g id="freepik--shell--inject-10" class="animable" style="transform-origin: 61.4745px 308.33px;"><path d="M56.7,314.57s11.49,2.56,14.86.78,2.46-5.14.75-7.46c0,0,1.77-1.77-.69-5.32a5.9,5.9,0,0,0-6.34-2.41s-1.38-2.8-6.39-2.18c-4.17.52-5.45,8.93-4.61,14,0,0-3.76-1-5,0s4.33,2.56,4.33,2.56,1.87,3.67,2.71,4.19S56.7,314.57,56.7,314.57Z" style="fill: rgb(255, 255, 255); transform-origin: 61.4702px 308.33px;" id="el787ivwddv9m" class="animable"></path><g id="ela3tjwmshqia"><path d="M67.49,314.77c4.38-.44,6-2.2,6.29-3.62a3.79,3.79,0,0,1-2.22,4.2c-3.37,1.78-14.86-.78-14.86-.78a26.29,26.29,0,0,1,.11,2.78,13.25,13.25,0,0,0-.8-3.43A45.29,45.29,0,0,0,67.49,314.77Z" style="opacity: 0.1; transform-origin: 64.9295px 314.25px;" class="animable"></path></g><g id="elsreh7y0z7z"><path d="M72.31,307.89s-4.48-.85-10.84,2.68a18.92,18.92,0,0,1,7.29-3.66c4.54-1.18,2.86-4.34,2.86-4.34C74.08,306.12,72.31,307.89,72.31,307.89Z" style="opacity: 0.1; transform-origin: 67.1981px 306.57px;" class="animable"></path></g><g id="elmsqxqra8qog"><path d="M56.85,308.6c2.55-6.26,6-8.08,5.43-9.15-.81-1.56-3.39-1.47-3.39-1.47,5-.62,6.39,2.18,6.39,2.18C59.71,302.48,56.85,308.6,56.85,308.6Z" style="opacity: 0.1; transform-origin: 61.065px 303.245px;" class="animable"></path></g></g></g><g id="freepik--Ship--inject-10" class="animable" style="transform-origin: 410.269px 202.311px;"><g id="freepik--ship--inject-10" class="animable" style="transform-origin: 410.269px 202.311px;"><path d="M345.61,209.82c-7.09,4.39-5,10.1-5,10.1l15.4,8.64,4,14.34,31.67,13.52,1.88-4.1,24.39,5,2.08,5.08,38.2,2.83-25.69-11L431,248.94l-16.54-8.23-5,2.88-29-13L379,215.29l-18.34-7.52A17.55,17.55,0,0,0,345.61,209.82Z" style="fill: rgb(200, 133, 106); transform-origin: 399.276px 236.076px;" id="elqcfsiynousi" class="animable"></path><g id="el53ssigweghk"><path d="M345.61,209.82c-7.09,4.39-5,10.1-5,10.1l15.4,8.64,4,14.34,31.67,13.52,1.88-4.1,24.39,5,2.08,5.08,38.2,2.83-25.69-11L431,248.94l-16.54-8.23-5,2.88-29-13L379,215.29l-18.34-7.52A17.55,17.55,0,0,0,345.61,209.82Z" style="opacity: 0.1; transform-origin: 399.276px 236.076px;" class="animable"></path></g><path d="M428.92,251l1.58,5.38,21,8.38h0L420,262.43l-2.08-5.08-24.39-5-1.88,4.1L360,242.9l-4-14.34-15.4-8.64c0-5.41,7.11-10.86,14.05-10.49s9.79,2.48,14.38,4.34,7.43,3,7.43,3l1.37,15.86,29.64,12.8,2.61-1.5,2.43-1.4Z" style="fill: rgb(175, 97, 82); transform-origin: 396.05px 237.086px;" id="elck3y0l7qn1i" class="animable"></path><g id="el0x0ccibak44"><polygon points="407.48 245.4 393.87 253.24 394.63 253.24 407.48 245.4" style="opacity: 0.25; transform-origin: 400.675px 249.32px;" class="animable"></polygon></g><g id="elaiahrxx53ht"><polygon points="376.47 216.74 356 228.56 360 242.9 377.84 232.6 376.47 216.74" style="opacity: 0.25; transform-origin: 366.92px 229.82px;" class="animable"></polygon></g><g id="el3e4g6dq7hwn"><polygon points="428.92 251 417.94 257.35 420.02 262.43 430.5 256.38 428.92 251" style="opacity: 0.25; transform-origin: 424.22px 256.715px;" class="animable"></polygon></g><path d="M340.46,216.44c-.49,1.34-.14,4.53-.14,4.53l14.85,8.38,4,14.2,33,14.1,1.95-4,23.17,4.64,2,5.19,39,2.62v-.81L420,262.43l-2.08-5.08-24.39-5-1.88,4.1L360,242.9l-4-14.34-15.4-8.64S340.17,219.07,340.46,216.44Z" style="fill: rgb(200, 133, 106); transform-origin: 399.244px 241.27px;" id="eloge1ag8t5fc" class="animable"></path><path d="M343.16,237.54c1.79,7,5.68,8.63,7.34,11.7s1.3,3.42,3.07,5.31,31.88,16.06,45,21,22.55,4.25,29.52,0,8.49-6.3,8.49-6.3a183.23,183.23,0,0,1-54.89-11.53C353.57,246.88,343.16,237.54,343.16,237.54Z" style="fill: rgb(154, 74, 77); transform-origin: 389.87px 258.271px;" id="el4dshdq6v66t" class="animable"></path><path d="M449.87,265.51l-1.78.87-5.76.56A3.87,3.87,0,0,1,440,268.6a28.91,28.91,0,0,1-3.44.67,136.74,136.74,0,0,1-36.05-4c-19.64-4.87-44.15-17.4-49-20.73a55.52,55.52,0,0,1-8.31-7A117.78,117.78,0,0,1,340.32,221l14.85,8.38,4,14.2,33,14.1,1.95-4,23.17,4.64,2,5.19Z" style="fill: rgb(177, 102, 104); transform-origin: 395.095px 245.152px;" id="elr9qjbml6jwl" class="animable"></path><path d="M391.58,268.56a1.49,1.49,0,1,1,2-.77A1.48,1.48,0,0,1,391.58,268.56Z" style="fill: rgb(38, 50, 56); transform-origin: 392.208px 267.211px;" id="elhlh9i40nrc9" class="animable"></path><path d="M394.19,268.07a1.93,1.93,0,1,1-1-2.54A1.93,1.93,0,0,1,394.19,268.07Zm-2.74-1.18a1.06,1.06,0,1,0,1.39-.55A1.05,1.05,0,0,0,391.45,266.89Z" style="fill: rgb(55, 71, 79); transform-origin: 392.42px 267.3px;" id="elmr3aiff3hq8" class="animable"></path><path d="M393.94,268a1.93,1.93,0,1,1-1-2.54A1.93,1.93,0,0,1,393.94,268Zm-2.74-1.18a1.05,1.05,0,1,0,1.39-.55A1.05,1.05,0,0,0,391.2,266.78Z" style="fill: rgb(69, 90, 100); transform-origin: 392.17px 267.23px;" id="elql17ssq6ppl" class="animable"></path><path d="M381.74,265.36a1.49,1.49,0,1,1,2-.63A1.49,1.49,0,0,1,381.74,265.36Z" style="fill: rgb(38, 50, 56); transform-origin: 382.422px 264.035px;" id="elkm4h3fli8qo" class="animable"></path><path d="M384.39,265.06a1.93,1.93,0,1,1-.83-2.61A1.94,1.94,0,0,1,384.39,265.06Zm-2.65-1.38a1.05,1.05,0,0,0,1.87,1,1.07,1.07,0,0,0-.45-1.42A1,1,0,0,0,381.74,263.68Z" style="fill: rgb(55, 71, 79); transform-origin: 382.677px 264.167px;" id="el2ii34zuq9cp" class="animable"></path><path d="M384.14,264.93a1.93,1.93,0,1,1-.82-2.61A1.93,1.93,0,0,1,384.14,264.93Zm-2.65-1.38a1.06,1.06,0,0,0,.45,1.42,1.05,1.05,0,1,0,1-1.87A1.07,1.07,0,0,0,381.49,263.55Z" style="fill: rgb(69, 90, 100); transform-origin: 382.431px 264.033px;" id="elnvzni7btc4c" class="animable"></path><path d="M373,261.52a1.49,1.49,0,1,1,1.95-.8A1.5,1.5,0,0,1,373,261.52Z" style="fill: rgb(38, 50, 56); transform-origin: 373.575px 260.144px;" id="elup4fv7rpqma" class="animable"></path><path d="M375.58,261a1.93,1.93,0,1,1-1-2.53A1.93,1.93,0,0,1,375.58,261Zm-2.76-1.15a1.06,1.06,0,1,0,1.38-.57A1.06,1.06,0,0,0,372.82,259.85Z" style="fill: rgb(55, 71, 79); transform-origin: 373.807px 260.238px;" id="el0mem1meo8us" class="animable"></path><path d="M375.32,260.89a1.93,1.93,0,1,1-1-2.53A1.93,1.93,0,0,1,375.32,260.89Zm-2.75-1.15a1.06,1.06,0,0,0,.57,1.38,1.06,1.06,0,1,0-.57-1.38Z" style="fill: rgb(69, 90, 100); transform-origin: 373.547px 260.128px;" id="eljn4q3mfyruf" class="animable"></path><path d="M364,257.67a1.49,1.49,0,1,1,2-.57A1.5,1.5,0,0,1,364,257.67Z" style="fill: rgb(38, 50, 56); transform-origin: 364.707px 256.357px;" id="elz3aqow7ann" class="animable"></path><path d="M366.61,257.46a1.93,1.93,0,1,1-.73-2.64A1.94,1.94,0,0,1,366.61,257.46ZM364,256a1.05,1.05,0,1,0,1.44-.4A1.06,1.06,0,0,0,364,256Z" style="fill: rgb(55, 71, 79); transform-origin: 364.932px 256.502px;" id="elaxyubnucgmv" class="animable"></path><path d="M366.37,257.32a1.93,1.93,0,1,1-.73-2.63A1.92,1.92,0,0,1,366.37,257.32Zm-2.59-1.47a1.06,1.06,0,0,0,.39,1.44,1.06,1.06,0,0,0,1-1.84A1.06,1.06,0,0,0,363.78,255.85Z" style="fill: rgb(69, 90, 100); transform-origin: 364.692px 256.37px;" id="elcjxm6tuik7s" class="animable"></path><path d="M423.91,258l56.4,9.26-55.79-12.44c-1.39-.27-2,2.91-.61,3.18Z" style="fill: rgb(38, 50, 56); transform-origin: 451.717px 261.032px;" id="elmxs9m7pkd3e" class="animable"></path><path d="M357.15,217.39,355.7,155.2l-1.4,62.19c0,1.55,2.85,1.54,2.85,0Z" id="ela8tr9hu2h6j" class="animable" style="transform-origin: 355.725px 186.874px;"></path><polygon points="369.71 221.94 340.5 205.44 340.43 193.66 346.11 195.66 340.42 191.53 340.4 188.12 343.33 189.21 340.39 187.14 340.32 174.22 369.71 221.94" style="fill: rgb(69, 90, 100); transform-origin: 355.015px 198.08px;" id="elxcqvkjqdyxo" class="animable"></polygon><path d="M386.38,243l-2.75-117.38L381,243c0,2.92,5.38,2.92,5.38,0Z" style="fill: rgb(38, 50, 56); transform-origin: 383.69px 185.405px;" id="el1c2iee1hjgk" class="animable"></path><path d="M367,157.83a.53.53,0,0,0,.27-.08l35-20.2a.56.56,0,0,0,.2-.75.54.54,0,0,0-.75-.2l-35,20.2a.55.55,0,0,0-.21.75A.56.56,0,0,0,367,157.83Z" style="fill: rgb(38, 50, 56); transform-origin: 384.489px 147.176px;" id="elixtm47ere6a" class="animable"></path><path d="M364.44,195.66a.69.69,0,0,0,.34-.09l42.47-24.52a.67.67,0,0,0-.66-1.16l-42.48,24.53a.67.67,0,0,0,.33,1.24Z" style="fill: rgb(38, 50, 56); transform-origin: 385.665px 182.745px;" id="elsarasx7agkh" class="animable"></path><path d="M358.83,241.28a.69.69,0,0,0,.37-.1l47.33-27.32a.74.74,0,0,0-.74-1.29L358.46,239.9a.74.74,0,0,0,.37,1.38Z" style="fill: rgb(38, 50, 56); transform-origin: 382.496px 226.877px;" id="elrf0lgkxkwuk" class="animable"></path><path d="M403,170.45l-35.88,20.72a24.62,24.62,0,0,0,2.21-6.42l12.27-7.31-11.73,3.84c.08-.75.14-1.5.17-2.27l6-3.32-5.94,2a40.2,40.2,0,0,0-3.59-17.51l35.88-20.72C407.84,144,408.89,161.27,403,170.45Z" style="fill: rgb(55, 71, 79); transform-origin: 386.74px 165.315px;" id="elw4j6iv9wj6i" class="animable"></path><path d="M406.45,210.87,363,236a30.08,30.08,0,0,0,2.76-8.17l7.74-5-7.33,2.53c.09-.62.16-1.24.21-1.88l3.77-1.68-3.67.48a49.2,49.2,0,0,0-4.24-23.88l43.5-25.12C412.31,178.77,413.6,199.75,406.45,210.87Z" style="fill: rgb(55, 71, 79); transform-origin: 386.754px 204.64px;" id="ela9goqp74esp" class="animable"></path><path d="M416.06,249.57l-2.31-99-2.23,99c0,2.46,4.54,2.46,4.54,0Z" style="fill: rgb(55, 71, 79); transform-origin: 413.79px 200.993px;" id="el8rz1kyezvm3" class="animable"></path><path d="M398.31,179.06a.5.5,0,0,0,.24-.06l31-17.88a.5.5,0,0,0,.18-.67.49.49,0,0,0-.67-.17l-31,17.88a.48.48,0,0,0,.24.9Z" style="fill: rgb(55, 71, 79); transform-origin: 413.802px 169.636px;" id="elo3k6iejh6sa" class="animable"></path><path d="M400.38,208.6a.53.53,0,0,0,.24-.06l31-17.88a.48.48,0,1,0-.48-.84l-31,17.88a.48.48,0,0,0-.17.66A.47.47,0,0,0,400.38,208.6Z" style="fill: rgb(55, 71, 79); transform-origin: 415.883px 199.178px;" id="elm0hmeu04r4m" class="animable"></path><path d="M398.8,248.63a.54.54,0,0,0,.25-.06l31-17.88a.49.49,0,0,0,.18-.66.48.48,0,0,0-.67-.18l-31,17.88a.49.49,0,0,0-.18.66A.48.48,0,0,0,398.8,248.63Z" style="fill: rgb(55, 71, 79); transform-origin: 414.305px 239.205px;" id="elmucj5zsmnds" class="animable"></path><path d="M436.2,178h0l-4.37,3,4.18-1.51c-.07.45-.15.9-.26,1.34l-2,1.18,1.8-.29a20,20,0,0,1-2.49,5.78l-31,17.88c3.25-4.29,3.68-10.51,2.46-15.91l2.42-1.29-2.58.59c-.17-.68-.37-1.35-.59-2l3.79-2.21-4.12,1.33a16,16,0,0,0-4-6.13l31-17.88C434.88,165.14,436.79,171.65,436.2,178Z" style="fill: rgb(69, 90, 100); transform-origin: 417.872px 183.63px;" id="elq53bbr8izmf" class="animable"></path><path d="M432.42,226.72,399.7,245.61c2.17-2.87,3.48-7.57,4-12.66l5.47-3.13-5.29,1c0-.66.06-1.32.07-2l2.95-1.49-2.94.77c.07-7.57-1.5-15-4.44-17.54l32.72-18.89C439.37,197,437.81,218.35,432.42,226.72Z" style="fill: rgb(69, 90, 100); transform-origin: 418.28px 218.64px;" id="el1goq87hh3mgi" class="animable"></path><g id="freepik--Skull--inject-10" class="animable" style="transform-origin: 420.05px 182.91px;"><path d="M414.76,191.77a.54.54,0,0,1,.39-.16,1.41,1.41,0,0,0,1.09-.53l7.23-7.59a2.13,2.13,0,0,0,.5-1.15h0c.07-.57.42-1.09.75-1.16s.35.16.39.46.14.38.3.36.33.09.38.33a1.74,1.74,0,0,1-.45,1.43.56.56,0,0,1-.35.18,2.12,2.12,0,0,0-1.4.73l-6.9,7.25a2.5,2.5,0,0,0-.57,1.32h0c-.08.57-.42,1.09-.76,1.14s-.34-.16-.37-.47-.15-.39-.31-.37-.32-.09-.37-.34A1.77,1.77,0,0,1,414.76,191.77Z" style="fill: rgb(250, 250, 250); transform-origin: 420.051px 187.777px;" id="elzxa3onybhlr" class="animable"></path><path d="M420.05,184.82a5.34,5.34,0,0,0,2.13-2.17,3,3,0,0,1,.46-1.92c.36-.53,1-.42,1.32-1.6s-.41-1.15-.41-1.85A19.58,19.58,0,0,0,424,174c0-2.05-1.3-3.44-3.91-1.93a7.94,7.94,0,0,0-3.91,6.44,12,12,0,0,0,.4,2.79c0,.7-.74,1.54-.4,2.33s.95,0,1.31.08.46.49.46,1.39C417.91,185.12,418.49,185.72,420.05,184.82Z" style="fill: rgb(250, 250, 250); transform-origin: 420.066px 178.374px;" id="elokvvj7ylkz" class="animable"></path><path d="M418.38,179a2.1,2.1,0,0,0-1.15,1.3c-.17.57-.12,1.58.48,1.63.42,0,1.33-.72,1.62-1.63S419.19,178.71,418.38,179Z" style="fill: rgb(69, 90, 100); transform-origin: 418.283px 180.431px;" id="elwa1diwgb25" class="animable"></path><path d="M421.71,177.11c.52-.38,1-.42,1.16,0a2.61,2.61,0,0,1-.49,2.2c-.42.51-1.33.82-1.62.24A2.39,2.39,0,0,1,421.71,177.11Z" style="fill: rgb(69, 90, 100); transform-origin: 421.823px 178.337px;" id="eldchfjyg6kii" class="animable"></path><path d="M420.05,182.14c.12.47.46.43.63.19s.14-.49,0-.85a4.5,4.5,0,0,0-.61-.87,16.76,16.76,0,0,0-.62,1.58c-.15.54-.19.83,0,.88S419.92,182.75,420.05,182.14Z" style="fill: rgb(69, 90, 100); transform-origin: 420.059px 181.842px;" id="elzm272vnanz" class="animable"></path><path d="M425.33,185.67a.74.74,0,0,0-.38.28,1.82,1.82,0,0,1-1.1.74l-7.23.75c-.25,0-.43-.2-.49-.57h0c-.08-.48-.42-.6-.76-.28a1.61,1.61,0,0,0-.38.9,1.22,1.22,0,0,1-.31.71,1.43,1.43,0,0,0-.37.77c-.09.56.11,1,.44.91a.65.65,0,0,0,.35-.22,2.43,2.43,0,0,1,1.4-.89l6.9-.72c.3,0,.51.23.58.66h0c.08.48.43.59.76.26a1.61,1.61,0,0,0,.38-.9,1.25,1.25,0,0,1,.3-.72,1.5,1.5,0,0,0,.37-.77C425.88,186,425.67,185.6,425.33,185.67Z" style="fill: rgb(250, 250, 250); transform-origin: 420.05px 187.777px;" id="el9b4h8jlpotn" class="animable"></path></g><path d="M441.86,256.76l-.72-41.8,33.23,48.15S454.76,253.14,441.86,256.76Z" style="fill: rgb(55, 71, 79); transform-origin: 457.755px 239.035px;" id="el0ij2ms9u7b3" class="animable"></path><polygon points="480.34 267.34 472.24 261.77 472.43 261.51 479.11 266.1 413.66 169.5 413.93 169.31 480.34 267.34" style="fill: rgb(55, 71, 79); transform-origin: 447px 218.325px;" id="el7244xqtbhb" class="animable"></polygon><path d="M383.24,135.75a3.13,3.13,0,0,0-2,.25c-.63.25-1.22.59-1.86.8a5.52,5.52,0,0,1-2.27.32,3,3,0,0,1-1-.32c-.32-.16-.5-.5-.79-.66a2.06,2.06,0,0,0,2.22-.36c.91-.71,1.43-1.75,2.36-2.45a6.91,6.91,0,0,1,3.23-1.31,2.14,2.14,0,0,0-.72,1.85A3.69,3.69,0,0,0,383.24,135.75Z" style="fill: rgb(186, 104, 200); transform-origin: 379.28px 134.577px;" id="el1mxddpfwo3g" class="animable"></path><path d="M380.53,137.71c-1.65.95-1.65,2.49,0,3.44a6.57,6.57,0,0,0,6,0c1.64-1,1.64-2.49,0-3.44A6.63,6.63,0,0,0,380.53,137.71Z" style="fill: rgb(38, 50, 56); transform-origin: 383.526px 139.434px;" id="elx12d98b2bfk" class="animable"></path><path d="M353.47,168.93a1.37,1.37,0,0,0,0,2.6,5,5,0,0,0,4.5,0c1.25-.72,1.25-1.88,0-2.6A5,5,0,0,0,353.47,168.93Z" id="elvt5fwhu8qv" class="animable" style="transform-origin: 355.72px 170.23px;"></path><path d="M410.82,160.11c-1.64.95-1.64,2.49,0,3.44a6.57,6.57,0,0,0,5.95,0c1.64-1,1.64-2.49,0-3.44A6.57,6.57,0,0,0,410.82,160.11Z" style="fill: rgb(55, 71, 79); transform-origin: 413.795px 161.83px;" id="elt61on0gkml8" class="animable"></path></g></g><g id="freepik--Shovel--inject-10" class="animable" style="transform-origin: 313.109px 359.921px;"><g id="freepik--shovel--inject-10" class="animable" style="transform-origin: 313.109px 359.921px;"><g id="freepik--shovel--inject-10" class="animable" style="transform-origin: 321.663px 359.921px;"><g id="freepik--shovel--inject-10" class="animable" style="transform-origin: 321.663px 359.921px;"><path d="M329.11,420.24s-3.9,19.26-8.3,29.19a33.18,33.18,0,0,1-1.54,3.05c-.89,0-1.83,0-2.84,0-7.11,0-16.79-1-23.75-5.51-1.93-7.38-2.78-12.82-.58-19.28l10.07-29.47,2.52-.53Z" style="fill: rgb(224, 224, 224); transform-origin: 309.953px 425.085px;" id="elhadwttmsz4c" class="animable"></path><polygon points="304.68 397.73 302.17 398.25 326.59 420.77 329.11 420.24 304.68 397.73" style="fill: rgb(235, 235, 235); transform-origin: 315.64px 409.25px;" id="elpjf1qmayqpf" class="animable"></polygon><path d="M326.6,420.77s-4.66,20.6-9,29.59a22.79,22.79,0,0,1-1.15,2.16c-7.11,0-16.79-1-23.75-5.51-.37-.25-.73-.48-1.08-.74-1.68-7.82-1.74-12,.5-18.54l10.07-29.47Z" style="fill: rgb(250, 250, 250); transform-origin: 308.498px 425.39px;" id="elayohf0ms01m" class="animable"></path><path d="M311.16,408.35l5.3,5.1c-.84,5.95-6.32,21.25-8.27,23.39s-3.63.39-3.05-1.82S311,415.41,311.16,408.35Z" style="fill: rgb(224, 224, 224); transform-origin: 310.742px 423.081px;" id="eln8rpehtz4r" class="animable"></path><path d="M313.58,395.37a1.84,1.84,0,0,1,1.38-1.23,5.7,5.7,0,0,1,5,1.14,1.8,1.8,0,0,1,.72,1.69c-.08.38-3.61,16.13-3.7,16.51a1.83,1.83,0,0,1-1.37,1.22,5.72,5.72,0,0,1-5-1.14,1.8,1.8,0,0,1-.72-1.69C310,411.49,313.5,395.74,313.58,395.37Z" style="fill: rgb(240, 240, 240); transform-origin: 315.285px 404.419px;" id="el155ixi7lwv7" class="animable"></path><g id="el57nha2eivp6"><path d="M320,400.37h0c.43-1.92.74-3.29.76-3.4a1.8,1.8,0,0,0-.72-1.69,4.71,4.71,0,0,0-1.41-.86c-1.55,7-3.08,13.83-4.56,20.43a4.7,4.7,0,0,0,1.61-.15h0a1.83,1.83,0,0,0,1.37-1.22s0-.13.07-.29C317.42,411.72,319,404.68,320,400.37Z" style="opacity: 0.2; transform-origin: 317.423px 404.643px;" class="animable"></path></g><g id="el205occ5tth2"><path d="M315,394.14a1.84,1.84,0,0,0-1.38,1.23,1.81,1.81,0,0,0,.72,1.69,5.68,5.68,0,0,0,5.05,1.13,1.57,1.57,0,0,0,.65-2.91A5.7,5.7,0,0,0,315,394.14Z" style="opacity: 0.2; transform-origin: 317.205px 396.168px;" class="animable"></path></g><path d="M334.13,303.25a1.84,1.84,0,0,1,1.38-1.23,5.73,5.73,0,0,1,5.05,1.14,1.82,1.82,0,0,1,.71,1.69c-.08.38-21.22,95.13-21.3,95.51a1.85,1.85,0,0,1-1.38,1.22,5.7,5.7,0,0,1-5-1.14,1.8,1.8,0,0,1-.72-1.69C312.91,398.37,334.05,303.62,334.13,303.25Z" style="fill: rgb(177, 102, 104); transform-origin: 327.07px 351.797px;" id="ely721ftqc7fo" class="animable"></path><g id="elcy7xtavygew"><path d="M335.51,302a1.84,1.84,0,0,0-1.38,1.23,1.86,1.86,0,0,0,.72,1.69,5.73,5.73,0,0,0,5,1.13,1.8,1.8,0,0,0,1.37-1.22,1.82,1.82,0,0,0-.71-1.69A5.73,5.73,0,0,0,335.51,302Z" style="opacity: 0.2; transform-origin: 337.677px 304.026px;" class="animable"></path></g><path d="M320.08,399.87l.05-.23.54-2.42c0-.21.09-.43.14-.66,3.22-14.4,14.69-65.83,18.9-84.69h0c1-4.33,1.55-7,1.56-7a1.82,1.82,0,0,0-.71-1.69,4.89,4.89,0,0,0-1.42-.86C334,325.51,325,365.87,317,401.75a4.81,4.81,0,0,0,1.63-.17,1.83,1.83,0,0,0,1.37-1.2h0l0-.13Z" style="fill: rgb(154, 74, 77); transform-origin: 329.143px 352.04px;" id="el3ucqryvahqm" class="animable"></path><path d="M336.48,297.72a1.58,1.58,0,0,0-.66,2.92,5.75,5.75,0,0,0,5.06,1.14,1.58,1.58,0,0,0,.65-2.92A5.72,5.72,0,0,0,336.48,297.72Z" style="fill: rgb(224, 224, 224); transform-origin: 338.676px 299.75px;" id="el2bn6xm483zi" class="animable"></path><path d="M335.1,299a1.84,1.84,0,0,1,1.38-1.23,5.72,5.72,0,0,1,5,1.14,1.81,1.81,0,0,1,.72,1.69c-.08.38-2.46,10.94-2.54,11.32a1.81,1.81,0,0,1-1.38,1.22,5.69,5.69,0,0,1-5.05-1.13,1.82,1.82,0,0,1-.72-1.7C332.65,309.88,335,299.33,335.1,299Z" style="fill: rgb(250, 250, 250); transform-origin: 337.355px 305.462px;" id="elm0jwey21t1j" class="animable"></path><g id="elq7xg0di66ds"><path d="M341.53,298.86a4.58,4.58,0,0,0-1.43-.84c-1,4.34-2.12,9.49-3.4,15.24a4.57,4.57,0,0,0,1.63-.17,1.8,1.8,0,0,0,1.37-1.21h0l0-.19c0-.09.05-.23.09-.39s.08-.36.13-.57.1-.46.16-.72l.11-.51,2-8.94A1.81,1.81,0,0,0,341.53,298.86Z" style="opacity: 0.2; transform-origin: 339.456px 305.647px;" class="animable"></path></g><path d="M332.63,276.23a26.59,26.59,0,0,0,1.15,15l2.29,6.22c.81,2.2,2.51,3.49,4,3l4.11-1.36c3.28-1.07,5.79-4.3,6.88-8.86l1.77-7.35a3.76,3.76,0,0,0,.1-.9h0a4.62,4.62,0,0,0-.91-2.74,42.85,42.85,0,0,0-7.42-7.4,29.53,29.53,0,0,0-8.13-4.44,1.42,1.42,0,0,0-1.74.72h0a2.8,2.8,0,0,0-.3.75Zm10.58,19.57-4.11,1.35c-.38.13-.83-.22-1-.79l-2.3-6.23a21.78,21.78,0,0,1-.93-12.23l1-4.06c5.1,1.65,9.81,5.23,14,10.65l-1,4.07C347.93,292.28,345.88,294.91,343.21,295.8Z" style="fill: rgb(250, 250, 250); transform-origin: 342.487px 283.938px;" id="ele6aqywoj35s" class="animable"></path></g></g><path d="M286.88,438.43a4.08,4.08,0,0,0-1.55,5.28,5.82,5.82,0,0,0-3.17-.46,2,2,0,0,0-1.61,2.38,3.3,3.3,0,0,0-2.5-.23,2,2,0,0,0-1.08,1.2.56.56,0,0,1-.09.19.42.42,0,0,1-.35.06,3.34,3.34,0,0,0-2.9,1.23.79.79,0,0,0,.17,1.39,5.83,5.83,0,0,0,4.8.22,1,1,0,0,1,1.28.08,5,5,0,0,0,3.22.76,5,5,0,0,0,3-1.46.38.38,0,0,1,.21-.14.41.41,0,0,1,.24.08,9.14,9.14,0,0,0,4.65,1.28,6.64,6.64,0,0,0,2.29-.43,22.44,22.44,0,0,0,1.89-1.23,25.1,25.1,0,0,0,6,2,10.16,10.16,0,0,1-4.66-4.32c-.7-1.27-1.11-2.69-1.78-4C293.58,439.83,289.83,436.79,286.88,438.43Z" style="fill: rgb(240, 153, 122); transform-origin: 287.334px 444.298px;" id="elqfvl9hjphw" class="animable"></path></g></g><g id="freepik--Character--inject-10" class="animable" style="transform-origin: 171.874px 223.471px;"><g id="freepik--character--inject-10" class="animable" style="transform-origin: 171.874px 223.471px;"><path d="M175.1,203.56l65.49-1.64c5.6,29.57,5.41,71.91,1.62,103.15-1.86,15.36-9.73,58.93-10.43,71,0,.72-7.5,4.92-12.4,4.1s-6.22-2.54-6.22-3.06c0-1.78-1.8-4.41-1.95-6.19-1-11.62-2.73-26.78-3.75-38.67a96.05,96.05,0,0,1,1.08-26.2l-4-44.11c0,.37-4.82,22.43-6.77,29.22l-.73,3.41c-.62,4-7.13,5.45-9.19,5.73-5.57.78-10.48-.79-15.4-3.51s-8.38-5.4-8.29-10v-2.4c-.08-7.56.74-25,.65-28.61C164.18,229.33,171.61,210.1,175.1,203.56Z" style="fill: rgb(38, 50, 56); transform-origin: 204.548px 291.098px;" id="elelgj0zypoug" class="animable"></path><path d="M204.56,261.9,209.87,239s10.91-1,17.77-10c0,0-.68,8.95-15,12.8l-4.55,19.52.62,44.49Z" id="eln9ezrvn112" class="animable" style="transform-origin: 216.1px 267.405px;"></path><path d="M169.12,335.45l-16.47,76.32a9.23,9.23,0,0,0,5,1.09l16.48-76.32Z" style="fill: rgb(177, 102, 104); transform-origin: 163.39px 374.165px;" id="el96olgzwqbdf" class="animable"></path><path d="M154,405.47c-.44,1.77,4.66,2.82,5,1.12.77.54,1.32.76.71,3.16s.82,3.32-.1,7.34c0,0-1.26,2.05-5.61,1-5.08-1.17-5-3.41-5-3.41.77-4.37,2.4-4.34,2.93-6.72C152.23,406.78,152.73,405.52,154,405.47Z" style="fill: rgb(154, 74, 77); transform-origin: 154.486px 411.93px;" id="el1rkki7mvkkp" class="animable"></path><path d="M170.29,334.08a1.11,1.11,0,0,0-.55,2,4,4,0,0,0,3.52,1,1.11,1.11,0,0,0,.55-2A4.07,4.07,0,0,0,170.29,334.08Z" style="fill: rgb(69, 90, 100); transform-origin: 171.775px 335.583px;" id="el9e9hglkf336" class="animable"></path><path d="M179.64,330.22a17,17,0,0,0-12.94-2.8c-2,.49-3.12,1.44-3.37,2.58l-.86,4c-.25,1.14.39,2.48,2,3.74a17,17,0,0,0,12.94,2.8c2-.49,3.12-1.44,3.37-2.58l.87-4C181.89,332.82,181.24,331.48,179.64,330.22Z" style="fill: rgb(154, 74, 77); transform-origin: 172.058px 333.98px;" id="elbl1ufrb7wvk" class="animable"></path><path d="M191.24,301.85c-3.92-3-16.44-6-22.75-4.72-3,.59-4.54,1.88-4.61,3.45l-1.3,28.64c0,.68,1.41,3.25,4.2,4.77a19.41,19.41,0,0,0,10.51,2.2c3.35-.29,5.51-2,5.77-2.65L194,307C194.57,305.59,193.73,303.74,191.24,301.85Z" style="fill: rgb(177, 102, 104); transform-origin: 178.375px 316.535px;" id="eljugyhhi2jq" class="animable"></path><path d="M162.37,315.17v.08c0,1,.92,2.48,2.46,4,.23.23.45.45.71.67a20.27,20.27,0,0,0,8,4.46c5.93,1.59,14,1.24,14.9-.6s1.74-3.78,2.47-5.44a127.88,127.88,0,0,0,6-18.53c1.17-5.33,1.86-8.35.92-8.7l-.78,3.24s-6,6.06-19.35,2.66c-5.34-1.36-8.54-3.3-10.45-5.09h0c-.24-.23-.46-.46-.66-.68a9.08,9.08,0,0,1-2.37-4.5v-2.4c-1.12-.16-1,1.58-1,5.27s.22,15.73-.25,19.86C162.69,311.13,162.52,313.23,162.37,315.17Z" style="fill: rgb(55, 71, 79); transform-origin: 180.32px 304.86px;" id="eliwmorl022mo" class="animable"></path><path d="M164.83,319.26c.23.23.45.45.71.67l.06-.37c.16-1,.3-2,.4-3.07a74.92,74.92,0,0,0,.48-7.49c.05-3.8,0-7.6.21-11.4q.17-2.6.45-5.19c0-.16.05-.32.07-.48h0c-.24-.23-.46-.46-.66-.68,0,.18-.05.36-.07.53-.24,1.91-.42,3.82-.56,5.73-.25,3.62-.26,7.23-.28,10.85,0,2.64-.15,5.26-.41,7.86C165.11,317.23,165,318.24,164.83,319.26Z" style="fill: rgb(38, 50, 56); transform-origin: 166.02px 305.59px;" id="el8sclnqkmgwy" class="animable"></path><path d="M170.43,297.13a1.09,1.09,0,1,0-1.19,1A1.08,1.08,0,0,0,170.43,297.13Zm-.12,6.72a1.08,1.08,0,0,0-1-1.19,1.09,1.09,0,1,0,1,1.19Zm-1.39,8.32a1.09,1.09,0,1,0-1-1.19A1.09,1.09,0,0,0,168.92,312.17Zm-2.29,6.62a1.09,1.09,0,1,0,1.19-1A1.09,1.09,0,0,0,166.63,318.79Z" style="fill: rgb(38, 50, 56); transform-origin: 168.53px 307.96px;" id="elh0w6u31h5t5" class="animable"></path><path d="M215.58,399.86l4.58-2.12s-3.36-3.73-5.27-3.67Z" id="elqebt4a7cr7" class="animable" style="transform-origin: 217.525px 396.965px;"></path><path d="M259.7,404.25c1.18,3.52-5.74,6.52-12.08,6.56-10,.07-17.2-2.11-22.07-6.62-4-3.68-8.25-9.15-9.63-9.39l-.34,5.06s-6.81-2.21-8.75-4.31-.87-9.4-.87-9.4,14,1.26,23.44,7S259.7,404.25,259.7,404.25Z" style="fill: rgb(38, 50, 56); transform-origin: 232.749px 398.481px;" id="elf8x0axxk8y6" class="animable"></path><path d="M240.53,323.25c-1.93,17.61-8.33,43.14-7.77,48.51s7.56,15.37,15.74,21c10.34,7.17,14.56,10.94,9,14.35-8.82,5.39-24.61,1.35-29.9-2.71s-9.05-10.39-13.1-11.36-8.66-2.67-8.52-6.92,3.57-13.14,3.84-21.07-3.46-28-3-42.39c0,0,1.65,2.84,12.12,3.72C229,327.26,240.53,323.25,240.53,323.25Z" style="fill: rgb(55, 71, 79); transform-origin: 232.97px 366.184px;" id="el0im86grsxcwm" class="animable"></path><path d="M240.59,321.61A53.69,53.69,0,0,1,221,325.24c-11.32-.22-14.24-4.31-14.24-4.31L204.28,334s1.65,5.37,16.06,6.25c15,.91,22.69-5.13,22.69-5.13Z" style="fill: rgb(69, 90, 100); transform-origin: 223.655px 330.637px;" id="el29w7t3920bo" class="animable"></path><polygon points="178.9 93.2 171.61 152.42 199.84 152.42 190.66 93.2 178.9 93.2" style="fill: rgb(186, 104, 200); transform-origin: 185.725px 122.81px;" id="elq4lnmxn5s4" class="animable"></polygon><g id="el9kg7vn5xa48"><polygon points="184.21 152.42 199.84 152.42 190.66 93.2 184.21 93.2 184.21 152.42" style="opacity: 0.15; transform-origin: 192.025px 122.81px;" class="animable"></polygon></g><g id="freepik--Arm--inject-10" class="animable" style="transform-origin: 249.325px 169.196px;"><path d="M252.72,204.64a1.76,1.76,0,0,0-1.86,1c-.28-.18-.46-.53-.78-.6s-.74.27-1,.61a7.48,7.48,0,0,0,.63,8.77,1.2,1.2,0,0,0,.45.36,1.23,1.23,0,0,0,.66,0,15,15,0,0,0,3.44-.81,3.88,3.88,0,0,0,2.61-2.2,4.32,4.32,0,0,0-.3-2.52,6.61,6.61,0,0,0-1.64-2.9C254.4,205.86,253.48,204.77,252.72,204.64Z" style="fill: rgb(177, 102, 104); transform-origin: 252.445px 209.723px;" id="elwae3px7x28i" class="animable"></path><path d="M261.6,180.7c8.12-11.61,7.93-13.92,4.72-20-1.75-3.32-10-15-18.24-26.57-8.05-11.31-11.33-12-17.26-12.88l-1.4,25.23,16.44,22.75s-9,18.67-10.57,23.92c-2.32,7.54-.47,17,5.72,21.33s7.66,4.85,12.27,3.51,5.8-1.89,6.11-3.48c.77-4,1.36-4.54-1.21-6.61-1.46-1.18-2.71-2.37-3.49-2.87a.7.7,0,0,0-1,.3c-1.13,2.32,2.22,5.33,2.22,5.33a18.7,18.7,0,0,0-4.5,1.89c-.95-4.07-.16-6.49-1.15-8.58-.62-1.33-1.76-3.56-.93-4.77C251.13,196.63,256.54,187.94,261.6,180.7Z" style="fill: rgb(255, 168, 167); transform-origin: 248.902px 169.946px;" id="eldxhpzwtxwc" class="animable"></path><path d="M245.86,169.24l-.68,1.42c2,1.62,7.3,2.68,11.14.2C254,171.57,249.21,171.86,245.86,169.24Z" style="fill: rgb(242, 143, 143); transform-origin: 250.75px 170.786px;" id="elw7yitmf3qmi" class="animable"></path><path d="M259.36,186.66A57.59,57.59,0,0,0,255,197.35c-3.08-.26-3.35-1-3.62-3s-1.52-3.66-4.1-2.5-4.25.06-4.57-1.74-1.17-2.66-3.73-1.54-4.78-1.55-4.78-1.55,4.78-3.67,7-7.85C246.94,178.94,253.83,181.83,259.36,186.66Z" style="fill: rgb(224, 224, 224); transform-origin: 246.78px 188.254px;" id="elh56jr2ry8fv" class="animable"></path><path d="M230.61,119.75c6.38.89,9.57,2.94,15.52,10.92,4.11,5.5,19.56,27.18,21.47,31.54s3.37,7.81-.71,14.19c-4.27,6.69-9.3,14.66-9.3,14.66s-4.31-9.36-17.62-10.78l5.31-10.9L229.15,147Z" style="fill: rgb(55, 71, 79); transform-origin: 249.325px 155.405px;" id="elvcj9v3lpjv" class="animable"></path><path d="M245.28,169.38c2,2.59,9.55,2.82,12.55,2-3.77,3.13-10.82,2.34-13.33-.39Z" style="fill: rgb(38, 50, 56); transform-origin: 251.165px 171.392px;" id="elx6qr1svd9a" class="animable"></path></g><g id="freepik--Chest--inject-10" class="animable" style="transform-origin: 204.57px 191.7px;"><path d="M187.28,119.93c9.15,11.37,27.65,32.37,32.74,46.32,0,0,2.89-31.55-4.71-47.8l8.31.78A29,29,0,0,1,237,135.3c3.68,11.56,3.42,30.18,3.81,46.47.42,17.78,1,27.77,1,27.77s-7.19,8.55-25.23,9.12c-31.5,1-43.63-10.14-43.63-10.14,1-6,2.29-14.49,1.28-21.76-1.18-8.55-3.67-14.43-5.78-22.42,0,0,13.61-15.69,9.62-26.82-3.88-10.81-11-12.64-11-12.64Z" style="fill: rgb(240, 240, 240); transform-origin: 204.44px 168.587px;" id="elex0e1djcnlj" class="animable"></path><path d="M221.81,119.06c4.56,8.08,8.72,19.3,9.27,50.18.21,11.62-1.93,32.65-1.93,32.65l-.28,8.19,9.8,51a42.35,42.35,0,0,0,10.94-27.85s-4.72-8.07-7.17-22.94l-1-26.81c.08-3.8.59-12.36.3-26.12-.5-23.06-3.05-28.19-11.1-37.65Z" style="fill: rgb(69, 90, 100); transform-origin: 235.71px 190.07px;" id="elikpj9xse23" class="animable"></path><path d="M184.34,120.65c16.83,25.37,23.77,56.49,25.53,82.47l-.65,6.22c-5.75,21.75-12.75,40.9-21.87,55.61a83.61,83.61,0,0,1-27.82-20.6c4.32-16.32,19-43,13.39-60.28-4.55-17.23-8.16-24.28-8.16-24.28s-9.55-23.36.53-34.46Z" style="fill: rgb(69, 90, 100); transform-origin: 184.7px 192.8px;" id="el8xekyxunp0v" class="animable"></path><path d="M172.92,184.07c2.42,9.4.12,18.39-1.31,24.72,15.51,10.26,34.08,11.85,50,10.29,16.95-1.66,20.83-8.75,20.83-8.75l-1-26.81s-6,8.11-21.23,9C190.6,194.29,172.92,184.07,172.92,184.07Z" style="fill: rgb(186, 104, 200); transform-origin: 207.025px 201.557px;" id="eltratfkbj8kg" class="animable"></path><path d="M174,192.8c5.66,4.18,29,9.12,47,7.59,18.78-1.59,20.73-10.13,20.73-10.13l.47,12.22s-5.48,8.67-21.46,9.19-29.5.21-47.67-9.4Z" style="fill: rgb(55, 71, 79); transform-origin: 207.635px 201.041px;" id="el9jjcp1eaky" class="animable"></path><polygon points="192.75 197.71 200.12 232.43 207.57 237.39 212.18 230.18 204.91 196.68 192.75 197.71" style="fill: rgb(55, 71, 79); transform-origin: 202.465px 217.035px;" id="el2037aqlkgurh" class="animable"></polygon><path d="M217,200.25l-23.92,3.09,2.34,11.52,21.25-2.55S212,204.88,217,200.25Z" style="fill: rgb(38, 50, 56); transform-origin: 205.04px 207.555px;" id="el1ce6lbm4ryf" class="animable"></path><path d="M226.17,203.4c-.08-2.79-1.63-4.32-4.6-4.55-.4,0-.88,0-1.43,0-3.13,0-5.73.26-5.85,4.14l0,1.32a29.06,29.06,0,0,0,.12,6.3,3.93,3.93,0,0,0,3.65,3,10.11,10.11,0,0,0,1.94-.09c.24,0,.48-.06.7-.07H221c1.49-.07,5-.22,5.21-3.56C226.28,208.28,226.22,204.76,226.17,203.4Zm-2.5,6c-.1,1.37-2,1.34-3.35,1.41s-3.2.61-3.52-.72a32.22,32.22,0,0,1-.06-5.52l.06-1.38c.06-1.37-.18-1.91,3.52-1.89,3,0,3.3.47,3.35,1.93S223.76,208.08,223.67,209.45Z" style="fill: rgb(224, 224, 224); transform-origin: 220.208px 206.236px;" id="elh3qeqeylit" class="animable"></path></g><g id="freepik--Sword--inject-10" class="animable" style="transform-origin: 168.411px 239.138px;"><path d="M173.59,200.63c-1.26,24.09-1.55,55.25-26.77,72.84,4.17,4.18,9.74,11.23.72,28.94,16.15-7.35,26.94-19.36,32.59-42.6s-.58-58.83-.58-58.83Z" style="fill: rgb(224, 224, 224); transform-origin: 164.66px 251.52px;" id="el0dreeka80j1d" class="animable"></path><path d="M176.9,200.82l-3.31-.19c-1.26,24.09-1.55,55.25-26.77,72.84l10-.65C177.12,252.16,177.3,221.2,176.9,200.82Z" style="fill: rgb(224, 224, 224); transform-origin: 161.903px 237.05px;" id="el300x6ujpo17" class="animable"></path><g id="elm2pxrvd5ez"><path d="M176.9,200.82l-3.31-.19c-1.26,24.09-1.55,55.25-26.77,72.84l10-.65C177.12,252.16,177.3,221.2,176.9,200.82Z" style="opacity: 0.15; transform-origin: 161.903px 237.05px;" class="animable"></path></g><path d="M176.87,198.89c9.45-.17,12.89.84,13.16,2.29s-3.69,2.06-13.29,2-13.9-1.35-13.66-2.66S167.26,199.07,176.87,198.89Z" style="fill: rgb(38, 50, 56); transform-origin: 176.557px 201.028px;" id="el5bvner5lnc" class="animable"></path><path d="M180.73,199.52c.07-.33-1.49-19-.56-20.74s6.25-3-3.77-2.91-3.61,1.33-3.36,2.88-.58,22.06-.58,22.06Z" style="fill: rgb(38, 50, 56); transform-origin: 176.601px 188.338px;" id="elfx32unx2a7n" class="animable"></path><path d="M175.59,189.08a22.28,22.28,0,0,1-2.71,0c0-.58,0-1.16.05-1.73a16,16,0,0,0,7-.72,26.84,26.84,0,0,1-7-1.7c0-.57,0-1.12,0-1.64a27.25,27.25,0,0,0,6.89,1.75c0,1,.07,2.11.13,3.21A20.74,20.74,0,0,1,175.59,189.08Z" style="fill: rgb(186, 104, 200); transform-origin: 176.415px 186.206px;" id="elwp3q5hzl0t" class="animable"></path><path d="M173.05,182.71c0-.47,0-.91,0-1.31a21.37,21.37,0,0,0,6.83-.74c0,.35,0,.72,0,1.13A18.14,18.14,0,0,1,173.05,182.71Z" style="fill: rgb(186, 104, 200); transform-origin: 176.465px 181.7px;" id="elzdfhaa23pz" class="animable"></path><path d="M172.65,195.85q0-.89.06-1.86a22.79,22.79,0,0,0,3,0,26.24,26.24,0,0,0,4.65-.77c0,.56.07,1.1.1,1.61a26,26,0,0,1-7.79,1Z" style="fill: rgb(186, 104, 200); transform-origin: 176.555px 194.535px;" id="elona4b764o2" class="animable"></path><path d="M176.67,192.36a21.54,21.54,0,0,1-3.85-1.41l.06-1.83a26.74,26.74,0,0,0,7.31,1.66q.06,1,.12,2A18.5,18.5,0,0,1,176.67,192.36Z" style="fill: rgb(186, 104, 200); transform-origin: 176.565px 190.95px;" id="el2r6xujvekjl" class="animable"></path><path d="M156.78,272.82l-10,.65c4.17,4.18,9.74,11.23.72,28.94C164.38,290.65,156.78,272.82,156.78,272.82Z" style="fill: rgb(240, 240, 240); transform-origin: 152.633px 287.615px;" id="elw7tjm2fufgh" class="animable"></path></g><g id="freepik--Head--inject-10" class="animable" style="transform-origin: 196.31px 104.778px;"><g id="freepik--head--inject-10" class="animable" style="transform-origin: 202.871px 113.675px;"><path d="M185,72s-2.39-.25-4.53,4.09c-1.08,2.19-2.43,8.7.6,17.85a50,50,0,0,0,5.86,12.18,5.64,5.64,0,0,0,3.36,2.47l-.48-8.6-.5-6s4.81-4.55,5.11-8.87c.38-5.57-1.92-8.64-1.92-8.64Z" style="fill: rgb(38, 50, 56); transform-origin: 186.839px 90.2937px;" id="el7we7o3jhwr" class="animable"></path><path d="M183.79,72.29c-.49-.45,1.25-3.31,1.52-3.7,2.13-3.17,5.82-5,9.37-6.19,8.18-2.72,18.56-1.36,24.06,5.85a16.43,16.43,0,0,1,3.65,9.89c0,.86-.12,2.39-1,2.78s-2.35-.17-3.26-.19l-10.91-.2-14.73-.28Z" style="fill: rgb(38, 50, 56); transform-origin: 203.047px 71.0785px;" id="elcddqc2brptf" class="animable"></path><path d="M225.47,97.32a27.7,27.7,0,0,1-.95,7.24,10.63,10.63,0,0,1-8.62,7.8,26.46,26.46,0,0,1-3.66.5l.22,2.68c.15,2.16.82,2.61,2.85,2.91,7.6,16.25,4.71,47.8,4.71,47.8-5.06-13.88-23.41-34.74-32.61-46.15l-.08-.11c2.19-.59,2.76-1.24,2.63-3.38L188.52,101s-2.07,3.77-6.69,1.74a8,8,0,0,1-4.21-10.83c1.88-4.24,6.56-3.25,7.85-2a8.46,8.46,0,0,1,2.56,3.8c.48-.44,2.56-1.79,3.13-2.94,3.37-3.37,3.15-11.41.73-13.87,1.81.76,8.56.07,11.33-1.08,6.66-2.79,11-6.3,15.95-4.11a6.24,6.24,0,0,1,3.74,4.92,54.21,54.21,0,0,0,1.16,8A60.14,60.14,0,0,1,225.47,97.32Z" style="fill: rgb(255, 168, 167); transform-origin: 201.161px 118.637px;" id="el5tgr1bh40is" class="animable"></path><path d="M212.24,112.86c-5.29.14-10.28-.35-13.45-1.54s-6-5.24-7.07-9.31c.09,3.3,1.75,9.11,6.55,11.39s10.72,2.11,14.18,2.08Z" style="fill: rgb(242, 143, 143); transform-origin: 202.085px 108.752px;" id="elrzc472omifo" class="animable"></path><path d="M205.18,83.5l-4.79-.72a2.47,2.47,0,0,1,2.8-2A2.38,2.38,0,0,1,205.18,83.5Z" style="fill: rgb(55, 71, 79); transform-origin: 202.799px 82.1261px;" id="elqa53gvjn1we" class="animable"></path><path d="M220.6,80.56l-4.28,2.34a2.37,2.37,0,0,1,.93-3.27A2.5,2.5,0,0,1,220.6,80.56Z" style="fill: rgb(55, 71, 79); transform-origin: 218.302px 81.1131px;" id="el733fca5svc" class="animable"></path><path d="M201.53,87.5a2.08,2.08,0,1,0,1.94-2.17A2.05,2.05,0,0,0,201.53,87.5Z" style="fill: rgb(38, 50, 56); transform-origin: 203.607px 87.4054px;" id="elfsdtm81tj4v" class="animable"></path><path d="M216.68,86.6a2.08,2.08,0,1,0,1.94-2.17A2,2,0,0,0,216.68,86.6Z" style="fill: rgb(38, 50, 56); transform-origin: 218.755px 86.5054px;" id="elxzqtq1hb3t" class="animable"></path><path d="M225.38,93.9a5.68,5.68,0,0,1-5.29,2.26c-1.53-.1-2.93-.92-4.38-1.4-3.92-1.28-8.66-.24-12,2a45.93,45.93,0,0,1-3.81,2.75,4.5,4.5,0,0,1-4.48.17c-1.32-.87-1.75-2.58-2-4.14a54,54,0,0,1-.69-8.22l-5.34,4.8c1.13,2.72,1.66,7.41.73,13-1.44,8.66,3.58,17.69,10.69,22.83.34.25.82.48,1.14.21.49-.42-.15-1.37.31-1.82a19.05,19.05,0,0,0,13.18,8.06,12,12,0,0,0,4.06-6.7c.78.06.66,1.64,1.44,1.63a1.08,1.08,0,0,0,.42-.16,16.29,16.29,0,0,0,7-19.85,7.4,7.4,0,0,1,2,3.11C230.14,104.55,227,98.24,225.38,93.9Z" style="fill: rgb(38, 50, 56); transform-origin: 208.14px 110.86px;" id="elulvlwyde2wr" class="animable"></path><path d="M209.22,83l2,12.28,6.58-2.62A29,29,0,0,0,209.22,83Z" style="fill: rgb(242, 143, 143); transform-origin: 213.51px 89.14px;" id="el931wqsq168n" class="animable"></path><path d="M212.67,103.87c1-.07,2.45-.11,3-1.06a2.26,2.26,0,0,0,.19-1.41,11.58,11.58,0,0,0-.46-2.18,3.8,3.8,0,0,0-.5-1.08,2.55,2.55,0,0,0-.81-.56,5.89,5.89,0,0,0-2.34-.62,12.58,12.58,0,0,0-3.52.09,3,3,0,0,0-.78.25,4.59,4.59,0,0,0-2,2.92,3.68,3.68,0,0,0-.22,1.47c.14,1.34,1.28,1.82,2.46,2,.72.12,1.46.13,2.19.18a18.57,18.57,0,0,0,2.69,0Z" style="fill: rgb(255, 168, 167); transform-origin: 210.562px 100.398px;" id="elrphtqlt1ivf" class="animable"></path><path d="M213.62,99.45l-6.09-1.09a3.25,3.25,0,0,0,2.58,3.68A3,3,0,0,0,213.62,99.45Z" style="fill: rgb(177, 102, 104); transform-origin: 210.556px 100.224px;" id="elizxdimvcdc" class="animable"></path><path d="M212,101.76A3.61,3.61,0,0,0,208,99.43c-.15,0-.3.08-.44.12a3.21,3.21,0,0,0,2.53,2.49A2.94,2.94,0,0,0,212,101.76Z" style="fill: rgb(242, 143, 143); transform-origin: 209.78px 100.736px;" id="el9gnmjq8ti7w" class="animable"></path></g><path d="M185.47,89.87s9.76-12.74,22.92-15.72,14.52,2.44,14.52,2.44,1.16-7.3-6.91-12.17S203.6,59,195.5,61.27c-8.5,2.42-20.3,13.93-16.11,28.4A5.36,5.36,0,0,1,185.47,89.87Z" style="fill: rgb(186, 104, 200); transform-origin: 200.742px 74.9272px;" id="elz7zoi9bmkg" class="animable"></path><path d="M165.51,78.69a23.94,23.94,0,0,1-2.08,2.68c-1.8,2-4,3.69-5.62,5.81s-2.83,4.88-2.2,7.5c1.16,4.88,6,6.62,10.31,7.63a41.24,41.24,0,0,0,7.82,1.08,64.87,64.87,0,0,0,8.47-.5c-2.52-1.07-4.55-3-4.92-5.62-.81-5.78,2.1-7.6,2.1-7.6l-.47-2s1.43-3.42,2-4.49a44.06,44.06,0,0,1,3.92-6.08c3.62-4.78,8.1-9.07,13.57-11.53s12-2.9,17.42-.23A11.13,11.13,0,0,1,220.19,69c1.8,2.68,2.75,8,3.24,12.3a39.06,39.06,0,0,0,.9,4.61c6.92-2.39,10.8-7.29,12.13-11a10.71,10.71,0,0,0-1.7-10.64c-2.33-2.67-5.67-4.18-8.73-6-6.93-4-12.41-10.19-19.9-13.19a25.54,25.54,0,0,0-20,.55C181.35,48,176.87,51.33,174.3,56c-2.46,4.47-3,9.73-4.76,14.5A39.92,39.92,0,0,1,165.51,78.69Z" style="fill: rgb(38, 50, 56); transform-origin: 196.31px 73.3484px;" id="elqvko8lgo3n" class="animable"></path><path d="M223.36,159.45a.82.82,0,0,1-.27-.06l-12.72-4.9a.65.65,0,0,1-.45-.85.76.76,0,0,1,1-.3l12.71,4.9a.67.67,0,0,1,.46.85A.71.71,0,0,1,223.36,159.45Z" style="fill: rgb(69, 90, 100); transform-origin: 217.002px 156.359px;" id="el19dp2ebl0cz" class="animable"></path><path d="M214.9,160.81a1,1,0,0,1-.46-.16.58.58,0,0,1-.16-.9l7.89-8.19a.88.88,0,0,1,1.08-.05.58.58,0,0,1,.16.9l-7.89,8.19A.76.76,0,0,1,214.9,160.81Z" style="fill: rgb(69, 90, 100); transform-origin: 218.845px 156.082px;" id="ellp2r5nxogle" class="animable"></path><path d="M207.77,150.72a.69.69,0,0,1-.31-.15.56.56,0,0,1,0-.87l13.09-12a.8.8,0,0,1,1-.05.56.56,0,0,1,0,.88l-13.08,12A.82.82,0,0,1,207.77,150.72Z" style="fill: rgb(69, 90, 100); transform-origin: 214.508px 144.117px;" id="elnpatxtpjng" class="animable"></path><path d="M221.67,147.92a.71.71,0,0,1-.21,0l-20-6.33a.68.68,0,0,1-.53-.83.73.73,0,0,1,1-.36l20,6.33a.69.69,0,0,1,.53.83A.7.7,0,0,1,221.67,147.92Z" style="fill: rgb(69, 90, 100); transform-origin: 211.694px 144.131px;" id="elqj092lf0u5n" class="animable"></path></g><path d="M104.63,195.6a67.07,67.07,0,0,0-7.29-1.91c-1.87-.41-3,.3-7.57,2.65-4.76,2.44-5.62,3.6-6.08,5a3.08,3.08,0,0,0,1.13,3.46c-1.49.88-1.44,3.59.62,4.63a2.46,2.46,0,0,0,.86,4c-.73.79-.5,3.9,2.26,4.67a50.52,50.52,0,0,0,7.27,1.19Z" style="fill: rgb(242, 143, 143); transform-origin: 94.0835px 206.435px;" id="eltpwtoch59yj" class="animable"></path><g id="freepik--Flag--inject-10" class="animable" style="transform-origin: 107.959px 217.396px;"><path d="M117.69,405.46,76.22,32.28l3.18-.35,41.47,373.2C121,406.39,117.8,406.68,117.69,405.46Z" style="fill: rgb(69, 90, 100); transform-origin: 98.5469px 219.085px;" id="elfgibv7hnvo6" class="animable"></path><path d="M79.75,35c14.69,3.5,25,11.7,33.6,32.35,6.13,14.66,17.78,31.36,28.32,31.58l-5.9,48.72s-13.33,0-25.17-12.05-13.47-33.18-23.46-34L82.39,58.82Z" style="fill: rgb(38, 50, 56); transform-origin: 110.71px 91.325px;" id="elic21vdlirme" class="animable"></path><path d="M119.36,114.93c-.21-.36-.33-.77-.53-1.14s-.42-.58-.61-.87L117,111.24c-.74-1-1.46-2.1-2.15-3.19a61.82,61.82,0,0,1-3.73-6.77,71.75,71.75,0,0,1-5.18-16A60.18,60.18,0,0,1,104.8,76c0-.14-.18-.18-.19,0a55.13,55.13,0,0,0,1.87,16.52,60.81,60.81,0,0,0,6.5,15.12c.77,1.29,1.6,2.55,2.47,3.77.43.6.88,1.19,1.34,1.77.28.34.56.69.87,1s.88.68,1.3,1A.26.26,0,0,0,119.36,114.93Z" id="elkwytxhnvs6c" class="animable" style="transform-origin: 111.965px 95.5509px;"></path><path d="M100.63,106.89c-4-11.26-9.31-15.14-12.44-28.27S79.75,35,79.75,35l2.64,23.82,4.75,42.76c10,.84,11.55,21.9,23.46,34s25.17,12.05,25.17,12.05c-4.72-.9-10.78-1.79-20.81-11.36C107.76,129.41,104.64,118.15,100.63,106.89Z" id="el6bs4sswn2u6" class="animable" style="transform-origin: 107.76px 91.315px;"></path><path d="M95.83,219.33c.9,0,2.1-1.37,3-2.3s2-2,1.91-2.86C100.63,213,99,213,99,213a6.6,6.6,0,0,0,.83-.68c1-1-.76-2.37-2.42-1.81,0,0,.72-.39.75-.85A2.12,2.12,0,0,0,96,207.49c1.18-.54.83-2.19.08-3.48a6.61,6.61,0,0,0-.89,0C93.89,208.62,94.31,213.79,95.83,219.33Z" style="fill: rgb(242, 143, 143); transform-origin: 97.5804px 211.663px;" id="el3pksdpb65gx" class="animable"></path><path d="M86.3,213.47a24.4,24.4,0,0,0,3.24,1c1.1.28,2.2.57,3.31.74a5,5,0,0,0,3.16-.68c1-.48,2-1,3-1.61a18.84,18.84,0,0,1-2.85,1.9,5.15,5.15,0,0,1-3.37.8,28.46,28.46,0,0,1-3.33-.84A15.47,15.47,0,0,1,86.3,213.47Z" style="fill: rgb(177, 102, 104); transform-origin: 92.655px 214.286px;" id="elk6xbifx4ykq" class="animable"></path><path d="M97.42,210.46a24.65,24.65,0,0,1-2.91,1.19,4.28,4.28,0,0,1-1.61.23,14.62,14.62,0,0,1-1.55-.36,61.73,61.73,0,0,1-5.91-2.07c2,.48,4,1.11,6,1.67.49.14,1,.3,1.48.39a4.78,4.78,0,0,0,1.48-.17C95.42,211.09,96.41,210.75,97.42,210.46Z" style="fill: rgb(177, 102, 104); transform-origin: 91.43px 210.668px;" id="elxkpb3aww7d8" class="animable"></path><path d="M96,207.49a6.13,6.13,0,0,1-2.91.55,19.82,19.82,0,0,1-2.83-.88c-1.83-.72-3.65-1.45-5.4-2.34,1.88.57,3.7,1.28,5.54,2a24.74,24.74,0,0,0,2.74.95A7.37,7.37,0,0,0,96,207.49Z" style="fill: rgb(177, 102, 104); transform-origin: 90.43px 206.435px;" id="elvgwky54rgjq" class="animable"></path><path d="M81.29,32.43a3.53,3.53,0,1,1-3.16-3.86A3.54,3.54,0,0,1,81.29,32.43Z" style="fill: rgb(55, 71, 79); transform-origin: 77.7767px 32.0823px;" id="eliovzq0gvjn" class="animable"></path></g><path d="M136.14,204s-12,4.46-19.6,7.4c-5.84,2.24-5.94,3.09-7.91,5-2.17,2.17-8.46,2.47-8.46,2.47h0l-.33-2.94a2.8,2.8,0,0,0,.87-1.71A1.35,1.35,0,0,0,99.53,213l-.06-.44.37-.32c.64-.6.22-1.34-.59-1.71L99,208.09a17.75,17.75,0,0,1-2.41-2.89v0A6.35,6.35,0,0,1,96,204s-.31,0-.73,0a8.41,8.41,0,0,0-4.06,1.15c-1,1.77-2.61,3.93-5.21,3.87-2.11-.06-2.09-1-1-3.17,1.45-2.93,2-4.35,3.13-5.81.79-1,3.85-2.38,6.32-3.38,1.16-.47,2.19-.85,2.8-1.09l.29-.1c1.78-.61,3.3-.49,6.6.06a11.19,11.19,0,0,0,6.26-.37c1.72-.46,10.84-5.37,10.84-5.37Z" style="fill: rgb(255, 168, 167); transform-origin: 110.206px 204.33px;" id="elcomagcg3eac" class="animable"></path><path d="M107.85,211.65a15.25,15.25,0,0,1-7.79-.35,1.56,1.56,0,0,0-.81-.74L99,208.09C100.75,210.6,104.56,211.74,107.85,211.65Z" style="fill: rgb(242, 143, 143); transform-origin: 103.425px 210.043px;" id="el5wrwes3w60r" class="animable"></path><path d="M129,207.9c-2.26,1.21-5.64,2.79-7.77,4.86a2.77,2.77,0,0,1-1.18-4c.9-1.87.73-3.9-2.06-4.34s-3.59-2.28-2.87-4,.48-2.87-2.27-3.34-2.35-3.57-2.35-3.57a40.72,40.72,0,0,0,8.44-3.32C123.94,191.53,127.84,195.86,129,207.9Z" style="fill: rgb(224, 224, 224); transform-origin: 119.74px 201.475px;" id="eli653kd5dor" class="animable"></path><path d="M165.29,125.33c-11.49,2.71-14.33,8.14-20,27.88-4.88,16.95-7.61,24.77-7.61,24.77l-21.08,13.37s11.09,3,9.81,18.1c0,0,11.13-4,24-9.79,8.43-3.8,9.86-5.6,12.47-13.46,3.32-10,6.89-19.95,6.89-19.95s5-13.69,5.29-21.26c.52-12.67-5.73-20.64-5.73-20.64Z" style="fill: rgb(55, 71, 79); transform-origin: 145.845px 166.9px;" id="elyozxrp17cl8" class="animable"></path><g id="freepik--skull--inject-10" class="animable" style="transform-origin: 107.745px 97.9013px;"><path d="M116.9,122.29a1.6,1.6,0,0,0-.71-.73,4.7,4.7,0,0,1-2-2.21l-12.64-23.1a8.06,8.06,0,0,1-.83-3v0a4.92,4.92,0,0,0-1.29-3.19c-.35-.24-.61.1-.68.76s-.27.77-.55.59-.57,0-.66.47a6.21,6.21,0,0,0,.74,3.56,1.59,1.59,0,0,0,.59.65,6.29,6.29,0,0,1,2.41,2.72l12,22a8.83,8.83,0,0,1,1,3.41v0a5,5,0,0,0,1.31,3.19c.37.27.66,0,.76-.64s.3-.7.61-.5.63.11.74-.38A5.65,5.65,0,0,0,116.9,122.29Z" style="fill: rgb(250, 250, 250); transform-origin: 107.625px 108.749px;" id="elo200898xtke" class="animable"></path><path d="M107.63,102a20.28,20.28,0,0,1-3.76-6.67,10.41,10.41,0,0,0-.73-4.79c-.62-1.51-1.74-1.72-2.29-4.7s.78-2.44.81-4.1-.69-3.2-.6-8.17,2.58-7.77,7.52-2.27,7.34,13.87,7.11,19-1,4.78-1.11,6.45,1.3,4.27.56,5.85-1.85-.9-2.56-.93-.92.76-1,2.83C111.58,104.46,110.45,105.37,107.63,102Z" style="fill: rgb(250, 250, 250); transform-origin: 108.211px 86.4358px;" id="elr5a71mdqvh" class="animable"></path><path d="M98.22,99.68a2.67,2.67,0,0,1,.65.91,6,6,0,0,0,1.86,2.5l13.08,7.8c.49.29.86-.07,1-.86v0c.2-1,.87-1,1.49,0a5.56,5.56,0,0,1,.64,2.41,4.44,4.44,0,0,0,.52,1.9,5.22,5.22,0,0,1,.64,2.08c.11,1.37-.33,2.11-1,1.64a2.49,2.49,0,0,1-.64-.82,8.62,8.62,0,0,0-2.57-3.28l-12.47-7.56c-.51-.31-.88.09-1,1h0c-.16,1-.75.92-1.31-.07a5.81,5.81,0,0,1-.61-2.26,4.57,4.57,0,0,0-.49-1.79,5.29,5.29,0,0,1-.61-2C97.28,100,97.64,99.26,98.22,99.68Z" style="fill: rgb(250, 250, 250); transform-origin: 107.747px 108.882px;" id="elieoxgi192m" class="animable"></path><path d="M98,103.26a4.57,4.57,0,0,1,.49,1.79,5.81,5.81,0,0,0,.61,2.26c.56,1,1.15,1,1.31.07h0a3.3,3.3,0,0,1,.16-.59,58,58,0,0,0-3-7,2.81,2.81,0,0,0-.16,1.48A5.29,5.29,0,0,0,98,103.26Z" style="fill: rgb(224, 224, 224); transform-origin: 98.972px 103.93px;" id="el5x12vhq1zw" class="animable"></path><path d="M114.82,110v0q0,.18-.09.33c.24.36.47.71.72,1.06.43.6.88,1.19,1.34,1.77l.38.46a5,5,0,0,1-.22-1.19,5.73,5.73,0,0,0-.39-1.87c-.27-.39-.53-.79-.8-1.19C115.34,109.09,115,109.29,114.82,110Z" style="fill: rgb(224, 224, 224); transform-origin: 115.95px 111.434px;" id="el98uiwyjagdg" class="animable"></path><path d="M111.25,104.57a.7.7,0,0,0,.33-.11,10.68,10.68,0,0,1,.2-1.9c-.22-.43-.45-.85-.66-1.28a71.75,71.75,0,0,1-5.18-16A60.18,60.18,0,0,1,104.8,76c0-.14-.18-.18-.19,0a55.13,55.13,0,0,0,1.87,16.52A60.63,60.63,0,0,0,111.25,104.57Z" style="fill: rgb(224, 224, 224); transform-origin: 108.174px 90.2248px;" id="eli6v2tda2i7" class="animable"></path><path d="M111.23,89.74a7.78,7.78,0,0,1,2.12,4c.26,1.5.07,3.88-1.1,3.5-.81-.26-2.48-2.76-3-5.14S109.71,88.33,111.23,89.74Z" style="fill: rgb(38, 50, 56); transform-origin: 111.281px 93.2274px;" id="elf5rvi9rf7rl" class="animable"></path><path d="M105.05,82.64c-.94-1.3-1.81-1.71-2.13-.91a8.81,8.81,0,0,0,.77,5.57c.74,1.52,2.4,2.93,3,1.77S106.52,84.66,105.05,82.64Z" style="fill: rgb(38, 50, 56); transform-origin: 104.83px 85.4089px;" id="elx0lx0ui5x6" class="animable"></path><path d="M107.82,95.83c-.27,1-.89.64-1.19-.06a2.22,2.22,0,0,1,.09-2,6.37,6.37,0,0,1,1.21-1.58s.79,2.84,1,4.21.3,2.09,0,2S108,97.35,107.82,95.83Z" style="fill: rgb(38, 50, 56); transform-origin: 107.779px 95.2988px;" id="elobakh6m1l38" class="animable"></path></g></g></g><defs>     <filter id="active" height="200%">         <feMorphology in="SourceAlpha" result="DILATED" operator="dilate" radius="2"></feMorphology>                <feFlood flood-color="#32DFEC" flood-opacity="1" result="PINK"></feFlood>        <feComposite in="PINK" in2="DILATED" operator="in" result="OUTLINE"></feComposite>        <feMerge>            <feMergeNode in="OUTLINE"></feMergeNode>            <feMergeNode in="SourceGraphic"></feMergeNode>        </feMerge>    </filter>    <filter id="hover" height="200%">        <feMorphology in="SourceAlpha" result="DILATED" operator="dilate" radius="2"></feMorphology>                <feFlood flood-color="#ff0000" flood-opacity="0.5" result="PINK"></feFlood>        <feComposite in="PINK" in2="DILATED" operator="in" result="OUTLINE"></feComposite>        <feMerge>            <feMergeNode in="OUTLINE"></feMergeNode>            <feMergeNode in="SourceGraphic"></feMergeNode>        </feMerge>            <feColorMatrix type="matrix" values="0   0   0   0   0                0   1   0   0   0                0   0   0   0   0                0   0   0   1   0 "></feColorMatrix>    </filter></defs></svg>